<mxfile host="Electron" modified="2023-06-19T18:33:35.365Z" agent="Mozilla/5.0 (Windows NT 10.0; Win64; x64) AppleWebKit/537.36 (KHTML, like Gecko) draw.io/21.2.8 Chrome/112.0.5615.165 Electron/24.2.0 Safari/537.36" etag="wQj_s11xSS6Ggv5bN3SL" version="21.2.8" type="device" pages="2">
  <diagram id="C5RBs43oDa-KdzZeNtuy" name="Logico">
    <mxGraphModel dx="1418" dy="820" grid="1" gridSize="10" guides="1" tooltips="1" connect="1" arrows="1" fold="1" page="1" pageScale="1" pageWidth="1169" pageHeight="827" math="0" shadow="0">
      <root>
        <mxCell id="WIyWlLk6GJQsqaUBKTNV-0" />
        <mxCell id="WIyWlLk6GJQsqaUBKTNV-1" parent="WIyWlLk6GJQsqaUBKTNV-0" />
        <mxCell id="zkfFHV4jXpPFQw0GAbJ--0" value="Contrato" style="swimlane;fontStyle=1;align=center;verticalAlign=top;childLayout=stackLayout;horizontal=1;startSize=26;horizontalStack=0;resizeParent=1;resizeLast=0;collapsible=1;marginBottom=0;rounded=1;shadow=0;strokeWidth=1;labelBackgroundColor=none;sketch=1;curveFitting=1;jiggle=2;" parent="WIyWlLk6GJQsqaUBKTNV-1" vertex="1">
          <mxGeometry x="280" y="38" width="160" height="342" as="geometry">
            <mxRectangle x="160" y="40" width="160" height="26" as="alternateBounds" />
          </mxGeometry>
        </mxCell>
        <mxCell id="zkfFHV4jXpPFQw0GAbJ--2" value="PK_Extrato" style="text;align=left;verticalAlign=top;spacingLeft=4;spacingRight=4;overflow=hidden;rotatable=0;points=[[0,0.5],[1,0.5]];portConstraint=eastwest;rounded=1;shadow=0;html=0;labelBackgroundColor=none;sketch=1;curveFitting=1;jiggle=2;" parent="zkfFHV4jXpPFQw0GAbJ--0" vertex="1">
          <mxGeometry y="26" width="160" height="26" as="geometry" />
        </mxCell>
        <mxCell id="4rKXWbHZXvkZWFOw5jDF-3" value="Contratante" style="text;align=left;verticalAlign=top;spacingLeft=4;spacingRight=4;overflow=hidden;rotatable=0;points=[[0,0.5],[1,0.5]];portConstraint=eastwest;rounded=1;shadow=0;html=0;labelBackgroundColor=none;sketch=1;curveFitting=1;jiggle=2;" parent="zkfFHV4jXpPFQw0GAbJ--0" vertex="1">
          <mxGeometry y="52" width="160" height="26" as="geometry" />
        </mxCell>
        <mxCell id="4rKXWbHZXvkZWFOw5jDF-1" value="Contratada" style="text;align=left;verticalAlign=top;spacingLeft=4;spacingRight=4;overflow=hidden;rotatable=0;points=[[0,0.5],[1,0.5]];portConstraint=eastwest;rounded=1;shadow=0;html=0;labelBackgroundColor=none;sketch=1;curveFitting=1;jiggle=2;" parent="zkfFHV4jXpPFQw0GAbJ--0" vertex="1">
          <mxGeometry y="78" width="160" height="26" as="geometry" />
        </mxCell>
        <mxCell id="zkfFHV4jXpPFQw0GAbJ--5" value="Objeto" style="text;align=left;verticalAlign=top;spacingLeft=4;spacingRight=4;overflow=hidden;rotatable=0;points=[[0,0.5],[1,0.5]];portConstraint=eastwest;rounded=1;labelBackgroundColor=none;sketch=1;curveFitting=1;jiggle=2;" parent="zkfFHV4jXpPFQw0GAbJ--0" vertex="1">
          <mxGeometry y="104" width="160" height="26" as="geometry" />
        </mxCell>
        <mxCell id="4rKXWbHZXvkZWFOw5jDF-42" value="Valor" style="text;align=left;verticalAlign=top;spacingLeft=4;spacingRight=4;overflow=hidden;rotatable=0;points=[[0,0.5],[1,0.5]];portConstraint=eastwest;rounded=1;labelBackgroundColor=none;sketch=1;curveFitting=1;jiggle=2;" parent="zkfFHV4jXpPFQw0GAbJ--0" vertex="1">
          <mxGeometry y="130" width="160" height="26" as="geometry" />
        </mxCell>
        <mxCell id="4rKXWbHZXvkZWFOw5jDF-27" value="Tipo" style="text;align=left;verticalAlign=top;spacingLeft=4;spacingRight=4;overflow=hidden;rotatable=0;points=[[0,0.5],[1,0.5]];portConstraint=eastwest;rounded=1;labelBackgroundColor=none;sketch=1;curveFitting=1;jiggle=2;" parent="zkfFHV4jXpPFQw0GAbJ--0" vertex="1">
          <mxGeometry y="156" width="160" height="26" as="geometry" />
        </mxCell>
        <mxCell id="4rKXWbHZXvkZWFOw5jDF-26" value="Vigencia" style="text;align=left;verticalAlign=top;spacingLeft=4;spacingRight=4;overflow=hidden;rotatable=0;points=[[0,0.5],[1,0.5]];portConstraint=eastwest;rounded=1;labelBackgroundColor=none;sketch=1;curveFitting=1;jiggle=2;" parent="zkfFHV4jXpPFQw0GAbJ--0" vertex="1">
          <mxGeometry y="182" width="160" height="26" as="geometry" />
        </mxCell>
        <mxCell id="4rKXWbHZXvkZWFOw5jDF-5" value="DataInicio" style="text;align=left;verticalAlign=top;spacingLeft=4;spacingRight=4;overflow=hidden;rotatable=0;points=[[0,0.5],[1,0.5]];portConstraint=eastwest;rounded=1;shadow=0;html=0;labelBackgroundColor=none;sketch=1;curveFitting=1;jiggle=2;" parent="zkfFHV4jXpPFQw0GAbJ--0" vertex="1">
          <mxGeometry y="208" width="160" height="26" as="geometry" />
        </mxCell>
        <mxCell id="4rKXWbHZXvkZWFOw5jDF-0" value="ProcessoSei" style="text;align=left;verticalAlign=top;spacingLeft=4;spacingRight=4;overflow=hidden;rotatable=0;points=[[0,0.5],[1,0.5]];portConstraint=eastwest;rounded=1;shadow=0;html=0;labelBackgroundColor=none;sketch=1;curveFitting=1;jiggle=2;" parent="zkfFHV4jXpPFQw0GAbJ--0" vertex="1">
          <mxGeometry y="234" width="160" height="26" as="geometry" />
        </mxCell>
        <mxCell id="zkfFHV4jXpPFQw0GAbJ--3" value="LinkPublico" style="text;align=left;verticalAlign=top;spacingLeft=4;spacingRight=4;overflow=hidden;rotatable=0;points=[[0,0.5],[1,0.5]];portConstraint=eastwest;rounded=1;shadow=0;html=0;labelBackgroundColor=none;sketch=1;curveFitting=1;jiggle=2;" parent="zkfFHV4jXpPFQw0GAbJ--0" vertex="1">
          <mxGeometry y="260" width="160" height="26" as="geometry" />
        </mxCell>
        <mxCell id="GM_1_GzG-txwJzzJDk9_-60" value="DataAssinatura" style="text;align=left;verticalAlign=top;spacingLeft=4;spacingRight=4;overflow=hidden;rotatable=0;points=[[0,0.5],[1,0.5]];portConstraint=eastwest;rounded=1;shadow=0;html=0;labelBackgroundColor=none;sketch=1;curveFitting=1;jiggle=2;" parent="zkfFHV4jXpPFQw0GAbJ--0" vertex="1">
          <mxGeometry y="286" width="160" height="26" as="geometry" />
        </mxCell>
        <mxCell id="4rKXWbHZXvkZWFOw5jDF-4" value="ProtocoloDiof&#xa;" style="text;align=left;verticalAlign=top;spacingLeft=4;spacingRight=4;overflow=hidden;rotatable=0;points=[[0,0.5],[1,0.5]];portConstraint=eastwest;rounded=1;labelBackgroundColor=none;sketch=1;curveFitting=1;jiggle=2;" parent="zkfFHV4jXpPFQw0GAbJ--0" vertex="1">
          <mxGeometry y="312" width="160" height="26" as="geometry" />
        </mxCell>
        <mxCell id="zkfFHV4jXpPFQw0GAbJ--17" value="Edital" style="swimlane;fontStyle=1;align=center;verticalAlign=top;childLayout=stackLayout;horizontal=1;startSize=26;horizontalStack=0;resizeParent=1;resizeLast=0;collapsible=1;marginBottom=0;rounded=1;shadow=0;strokeWidth=1;labelBackgroundColor=none;arcSize=15;sketch=1;curveFitting=1;jiggle=2;" parent="WIyWlLk6GJQsqaUBKTNV-1" vertex="1">
          <mxGeometry x="520" y="38" width="162.31" height="138" as="geometry">
            <mxRectangle x="550" y="140" width="160" height="26" as="alternateBounds" />
          </mxGeometry>
        </mxCell>
        <mxCell id="zkfFHV4jXpPFQw0GAbJ--19" value="PK_Numero" style="text;align=left;verticalAlign=top;spacingLeft=4;spacingRight=4;overflow=hidden;rotatable=0;points=[[0,0.5],[1,0.5]];portConstraint=eastwest;rounded=1;shadow=0;html=0;labelBackgroundColor=none;sketch=1;curveFitting=1;jiggle=2;" parent="zkfFHV4jXpPFQw0GAbJ--17" vertex="1">
          <mxGeometry y="26" width="162.31" height="26" as="geometry" />
        </mxCell>
        <mxCell id="zkfFHV4jXpPFQw0GAbJ--20" value="LinkPublico" style="text;align=left;verticalAlign=top;spacingLeft=4;spacingRight=4;overflow=hidden;rotatable=0;points=[[0,0.5],[1,0.5]];portConstraint=eastwest;rounded=1;shadow=0;html=0;labelBackgroundColor=none;sketch=1;curveFitting=1;jiggle=2;" parent="zkfFHV4jXpPFQw0GAbJ--17" vertex="1">
          <mxGeometry y="52" width="162.31" height="26" as="geometry" />
        </mxCell>
        <mxCell id="zkfFHV4jXpPFQw0GAbJ--21" value="DataPublicacao" style="text;align=left;verticalAlign=top;spacingLeft=4;spacingRight=4;overflow=hidden;rotatable=0;points=[[0,0.5],[1,0.5]];portConstraint=eastwest;rounded=1;shadow=0;html=0;labelBackgroundColor=none;sketch=1;curveFitting=1;jiggle=2;" parent="zkfFHV4jXpPFQw0GAbJ--17" vertex="1">
          <mxGeometry y="78" width="162.31" height="30" as="geometry" />
        </mxCell>
        <mxCell id="GM_1_GzG-txwJzzJDk9_-20" value="FK_Extrato (Contrato)" style="text;align=left;verticalAlign=top;spacingLeft=4;spacingRight=4;overflow=hidden;rotatable=0;points=[[0,0.5],[1,0.5]];portConstraint=eastwest;rounded=1;shadow=0;html=0;labelBackgroundColor=none;sketch=1;curveFitting=1;jiggle=2;" parent="zkfFHV4jXpPFQw0GAbJ--17" vertex="1">
          <mxGeometry y="108" width="162.31" height="30" as="geometry" />
        </mxCell>
        <mxCell id="4rKXWbHZXvkZWFOw5jDF-15" value="Aditivos" style="swimlane;fontStyle=1;align=center;verticalAlign=top;childLayout=stackLayout;horizontal=1;startSize=26;horizontalStack=0;resizeParent=1;resizeLast=0;collapsible=1;marginBottom=0;rounded=1;shadow=0;strokeWidth=1;labelBackgroundColor=none;sketch=1;curveFitting=1;jiggle=2;" parent="WIyWlLk6GJQsqaUBKTNV-1" vertex="1">
          <mxGeometry x="40" y="38" width="160" height="182" as="geometry">
            <mxRectangle x="550" y="140" width="160" height="26" as="alternateBounds" />
          </mxGeometry>
        </mxCell>
        <mxCell id="4rKXWbHZXvkZWFOw5jDF-16" value="PK_Numero" style="text;align=left;verticalAlign=top;spacingLeft=4;spacingRight=4;overflow=hidden;rotatable=0;points=[[0,0.5],[1,0.5]];portConstraint=eastwest;rounded=1;labelBackgroundColor=none;sketch=1;curveFitting=1;jiggle=2;" parent="4rKXWbHZXvkZWFOw5jDF-15" vertex="1">
          <mxGeometry y="26" width="160" height="26" as="geometry" />
        </mxCell>
        <mxCell id="4rKXWbHZXvkZWFOw5jDF-19" value="Descricao" style="text;align=left;verticalAlign=top;spacingLeft=4;spacingRight=4;overflow=hidden;rotatable=0;points=[[0,0.5],[1,0.5]];portConstraint=eastwest;rounded=1;shadow=0;html=0;labelBackgroundColor=none;sketch=1;curveFitting=1;jiggle=2;" parent="4rKXWbHZXvkZWFOw5jDF-15" vertex="1">
          <mxGeometry y="52" width="160" height="26" as="geometry" />
        </mxCell>
        <mxCell id="4rKXWbHZXvkZWFOw5jDF-17" value="DataInicio" style="text;align=left;verticalAlign=top;spacingLeft=4;spacingRight=4;overflow=hidden;rotatable=0;points=[[0,0.5],[1,0.5]];portConstraint=eastwest;rounded=1;shadow=0;html=0;labelBackgroundColor=none;sketch=1;curveFitting=1;jiggle=2;" parent="4rKXWbHZXvkZWFOw5jDF-15" vertex="1">
          <mxGeometry y="78" width="160" height="26" as="geometry" />
        </mxCell>
        <mxCell id="4rKXWbHZXvkZWFOw5jDF-18" value="DataFim" style="text;align=left;verticalAlign=top;spacingLeft=4;spacingRight=4;overflow=hidden;rotatable=0;points=[[0,0.5],[1,0.5]];portConstraint=eastwest;rounded=1;shadow=0;html=0;labelBackgroundColor=none;sketch=1;curveFitting=1;jiggle=2;" parent="4rKXWbHZXvkZWFOw5jDF-15" vertex="1">
          <mxGeometry y="104" width="160" height="26" as="geometry" />
        </mxCell>
        <mxCell id="4rKXWbHZXvkZWFOw5jDF-34" value="Valor" style="text;align=left;verticalAlign=top;spacingLeft=4;spacingRight=4;overflow=hidden;rotatable=0;points=[[0,0.5],[1,0.5]];portConstraint=eastwest;rounded=1;shadow=0;html=0;labelBackgroundColor=none;sketch=1;curveFitting=1;jiggle=2;" parent="4rKXWbHZXvkZWFOw5jDF-15" vertex="1">
          <mxGeometry y="130" width="160" height="26" as="geometry" />
        </mxCell>
        <mxCell id="GM_1_GzG-txwJzzJDk9_-18" value="FK_Extrato (Contrato)" style="text;align=left;verticalAlign=top;spacingLeft=4;spacingRight=4;overflow=hidden;rotatable=0;points=[[0,0.5],[1,0.5]];portConstraint=eastwest;rounded=1;shadow=0;html=0;labelBackgroundColor=none;sketch=1;curveFitting=1;jiggle=2;" parent="4rKXWbHZXvkZWFOw5jDF-15" vertex="1">
          <mxGeometry y="156" width="160" height="26" as="geometry" />
        </mxCell>
        <mxCell id="4rKXWbHZXvkZWFOw5jDF-28" value="Apostilamento&#xa;" style="swimlane;fontStyle=1;align=center;verticalAlign=top;childLayout=stackLayout;horizontal=1;startSize=26;horizontalStack=0;resizeParent=1;resizeLast=0;collapsible=1;marginBottom=0;rounded=1;shadow=0;strokeWidth=1;labelBackgroundColor=none;sketch=1;curveFitting=1;jiggle=2;" parent="WIyWlLk6GJQsqaUBKTNV-1" vertex="1">
          <mxGeometry x="41" y="238" width="160" height="182" as="geometry">
            <mxRectangle x="550" y="140" width="160" height="26" as="alternateBounds" />
          </mxGeometry>
        </mxCell>
        <mxCell id="4rKXWbHZXvkZWFOw5jDF-29" value="PK_Numero" style="text;align=left;verticalAlign=top;spacingLeft=4;spacingRight=4;overflow=hidden;rotatable=0;points=[[0,0.5],[1,0.5]];portConstraint=eastwest;rounded=1;labelBackgroundColor=none;sketch=1;curveFitting=1;jiggle=2;" parent="4rKXWbHZXvkZWFOw5jDF-28" vertex="1">
          <mxGeometry y="26" width="160" height="26" as="geometry" />
        </mxCell>
        <mxCell id="4rKXWbHZXvkZWFOw5jDF-30" value="Descricao" style="text;align=left;verticalAlign=top;spacingLeft=4;spacingRight=4;overflow=hidden;rotatable=0;points=[[0,0.5],[1,0.5]];portConstraint=eastwest;rounded=1;shadow=0;html=0;labelBackgroundColor=none;sketch=1;curveFitting=1;jiggle=2;" parent="4rKXWbHZXvkZWFOw5jDF-28" vertex="1">
          <mxGeometry y="52" width="160" height="26" as="geometry" />
        </mxCell>
        <mxCell id="4rKXWbHZXvkZWFOw5jDF-31" value="DataInicio" style="text;align=left;verticalAlign=top;spacingLeft=4;spacingRight=4;overflow=hidden;rotatable=0;points=[[0,0.5],[1,0.5]];portConstraint=eastwest;rounded=1;shadow=0;html=0;labelBackgroundColor=none;sketch=1;curveFitting=1;jiggle=2;" parent="4rKXWbHZXvkZWFOw5jDF-28" vertex="1">
          <mxGeometry y="78" width="160" height="26" as="geometry" />
        </mxCell>
        <mxCell id="4rKXWbHZXvkZWFOw5jDF-32" value="DataFim" style="text;align=left;verticalAlign=top;spacingLeft=4;spacingRight=4;overflow=hidden;rotatable=0;points=[[0,0.5],[1,0.5]];portConstraint=eastwest;rounded=1;shadow=0;html=0;labelBackgroundColor=none;sketch=1;curveFitting=1;jiggle=2;" parent="4rKXWbHZXvkZWFOw5jDF-28" vertex="1">
          <mxGeometry y="104" width="160" height="26" as="geometry" />
        </mxCell>
        <mxCell id="4rKXWbHZXvkZWFOw5jDF-33" value="Valor" style="text;align=left;verticalAlign=top;spacingLeft=4;spacingRight=4;overflow=hidden;rotatable=0;points=[[0,0.5],[1,0.5]];portConstraint=eastwest;rounded=1;shadow=0;html=0;labelBackgroundColor=none;sketch=1;curveFitting=1;jiggle=2;" parent="4rKXWbHZXvkZWFOw5jDF-28" vertex="1">
          <mxGeometry y="130" width="160" height="26" as="geometry" />
        </mxCell>
        <mxCell id="GM_1_GzG-txwJzzJDk9_-19" value="FK_Extrato (Contrato)" style="text;align=left;verticalAlign=top;spacingLeft=4;spacingRight=4;overflow=hidden;rotatable=0;points=[[0,0.5],[1,0.5]];portConstraint=eastwest;rounded=1;shadow=0;html=0;labelBackgroundColor=none;sketch=1;curveFitting=1;jiggle=2;" parent="4rKXWbHZXvkZWFOw5jDF-28" vertex="1">
          <mxGeometry y="156" width="160" height="26" as="geometry" />
        </mxCell>
        <mxCell id="4rKXWbHZXvkZWFOw5jDF-43" value="PagamentoTipo" style="swimlane;fontStyle=1;align=center;verticalAlign=top;childLayout=stackLayout;horizontal=1;startSize=26;horizontalStack=0;resizeParent=1;resizeLast=0;collapsible=1;marginBottom=0;rounded=1;shadow=0;strokeWidth=1;labelBackgroundColor=none;sketch=1;curveFitting=1;jiggle=2;" parent="WIyWlLk6GJQsqaUBKTNV-1" vertex="1">
          <mxGeometry x="520.0000000000001" y="190" width="160" height="156" as="geometry">
            <mxRectangle x="550" y="140" width="160" height="26" as="alternateBounds" />
          </mxGeometry>
        </mxCell>
        <mxCell id="4rKXWbHZXvkZWFOw5jDF-47" value="PK_NotaEmpenho" style="text;align=left;verticalAlign=top;spacingLeft=4;spacingRight=4;overflow=hidden;rotatable=0;points=[[0,0.5],[1,0.5]];portConstraint=eastwest;rounded=1;shadow=0;html=0;labelBackgroundColor=none;sketch=1;curveFitting=1;jiggle=2;" parent="4rKXWbHZXvkZWFOw5jDF-43" vertex="1">
          <mxGeometry y="26" width="160" height="26" as="geometry" />
        </mxCell>
        <mxCell id="4rKXWbHZXvkZWFOw5jDF-48" value="DataCadastro" style="text;align=left;verticalAlign=top;spacingLeft=4;spacingRight=4;overflow=hidden;rotatable=0;points=[[0,0.5],[1,0.5]];portConstraint=eastwest;rounded=1;shadow=0;html=0;labelBackgroundColor=none;sketch=1;curveFitting=1;jiggle=2;" parent="4rKXWbHZXvkZWFOw5jDF-43" vertex="1">
          <mxGeometry y="52" width="160" height="26" as="geometry" />
        </mxCell>
        <mxCell id="4rKXWbHZXvkZWFOw5jDF-44" value="Modalidade " style="text;align=left;verticalAlign=top;spacingLeft=4;spacingRight=4;overflow=hidden;rotatable=0;points=[[0,0.5],[1,0.5]];portConstraint=eastwest;rounded=1;labelBackgroundColor=none;sketch=1;curveFitting=1;jiggle=2;" parent="4rKXWbHZXvkZWFOw5jDF-43" vertex="1">
          <mxGeometry y="78" width="160" height="26" as="geometry" />
        </mxCell>
        <mxCell id="GM_1_GzG-txwJzzJDk9_-21" value="FK_Extrato (Contrato)" style="text;align=left;verticalAlign=top;spacingLeft=4;spacingRight=4;overflow=hidden;rotatable=0;points=[[0,0.5],[1,0.5]];portConstraint=eastwest;rounded=1;shadow=0;html=0;labelBackgroundColor=none;sketch=1;curveFitting=1;jiggle=2;" parent="4rKXWbHZXvkZWFOw5jDF-43" vertex="1">
          <mxGeometry y="104" width="160" height="26" as="geometry" />
        </mxCell>
        <mxCell id="4rKXWbHZXvkZWFOw5jDF-55" value="Despesa" style="swimlane;fontStyle=1;align=center;verticalAlign=top;childLayout=stackLayout;horizontal=1;startSize=26;horizontalStack=0;resizeParent=1;resizeLast=0;collapsible=1;marginBottom=0;rounded=1;shadow=0;strokeWidth=1;labelBackgroundColor=none;sketch=1;curveFitting=1;jiggle=2;" parent="WIyWlLk6GJQsqaUBKTNV-1" vertex="1">
          <mxGeometry x="519" y="365" width="160" height="208" as="geometry">
            <mxRectangle x="550" y="140" width="160" height="26" as="alternateBounds" />
          </mxGeometry>
        </mxCell>
        <mxCell id="v4fzigUWRRETPaChCbzR-0" value="PK_CodigoID" style="text;align=left;verticalAlign=top;spacingLeft=4;spacingRight=4;overflow=hidden;rotatable=0;points=[[0,0.5],[1,0.5]];portConstraint=eastwest;rounded=1;shadow=0;html=0;labelBackgroundColor=none;sketch=1;curveFitting=1;jiggle=2;" parent="4rKXWbHZXvkZWFOw5jDF-55" vertex="1">
          <mxGeometry y="26" width="160" height="26" as="geometry" />
        </mxCell>
        <mxCell id="4rKXWbHZXvkZWFOw5jDF-57" value="Programa" style="text;align=left;verticalAlign=top;spacingLeft=4;spacingRight=4;overflow=hidden;rotatable=0;points=[[0,0.5],[1,0.5]];portConstraint=eastwest;rounded=1;shadow=0;html=0;labelBackgroundColor=none;sketch=1;curveFitting=1;jiggle=2;" parent="4rKXWbHZXvkZWFOw5jDF-55" vertex="1">
          <mxGeometry y="52" width="160" height="26" as="geometry" />
        </mxCell>
        <mxCell id="4rKXWbHZXvkZWFOw5jDF-58" value="Acao" style="text;align=left;verticalAlign=top;spacingLeft=4;spacingRight=4;overflow=hidden;rotatable=0;points=[[0,0.5],[1,0.5]];portConstraint=eastwest;rounded=1;shadow=0;html=0;labelBackgroundColor=none;sketch=1;curveFitting=1;jiggle=2;" parent="4rKXWbHZXvkZWFOw5jDF-55" vertex="1">
          <mxGeometry y="78" width="160" height="26" as="geometry" />
        </mxCell>
        <mxCell id="4rKXWbHZXvkZWFOw5jDF-59" value="Fonte" style="text;align=left;verticalAlign=top;spacingLeft=4;spacingRight=4;overflow=hidden;rotatable=0;points=[[0,0.5],[1,0.5]];portConstraint=eastwest;rounded=1;shadow=0;html=0;labelBackgroundColor=none;sketch=1;curveFitting=1;jiggle=2;" parent="4rKXWbHZXvkZWFOw5jDF-55" vertex="1">
          <mxGeometry y="104" width="160" height="26" as="geometry" />
        </mxCell>
        <mxCell id="4rKXWbHZXvkZWFOw5jDF-60" value="Natureza" style="text;align=left;verticalAlign=top;spacingLeft=4;spacingRight=4;overflow=hidden;rotatable=0;points=[[0,0.5],[1,0.5]];portConstraint=eastwest;rounded=1;shadow=0;html=0;labelBackgroundColor=none;sketch=1;curveFitting=1;jiggle=2;" parent="4rKXWbHZXvkZWFOw5jDF-55" vertex="1">
          <mxGeometry y="130" width="160" height="26" as="geometry" />
        </mxCell>
        <mxCell id="4rKXWbHZXvkZWFOw5jDF-61" value="Elemento" style="text;align=left;verticalAlign=top;spacingLeft=4;spacingRight=4;overflow=hidden;rotatable=0;points=[[0,0.5],[1,0.5]];portConstraint=eastwest;rounded=1;shadow=0;html=0;labelBackgroundColor=none;sketch=1;curveFitting=1;jiggle=2;" parent="4rKXWbHZXvkZWFOw5jDF-55" vertex="1">
          <mxGeometry y="156" width="160" height="26" as="geometry" />
        </mxCell>
        <mxCell id="GM_1_GzG-txwJzzJDk9_-22" value="FK_Extrato (Contrato)" style="text;align=left;verticalAlign=top;spacingLeft=4;spacingRight=4;overflow=hidden;rotatable=0;points=[[0,0.5],[1,0.5]];portConstraint=eastwest;rounded=1;shadow=0;html=0;labelBackgroundColor=none;sketch=1;curveFitting=1;jiggle=2;" parent="4rKXWbHZXvkZWFOw5jDF-55" vertex="1">
          <mxGeometry y="182" width="160" height="26" as="geometry" />
        </mxCell>
        <mxCell id="4rKXWbHZXvkZWFOw5jDF-90" value="Portaria" style="swimlane;fontStyle=1;align=center;verticalAlign=top;childLayout=stackLayout;horizontal=1;startSize=26;horizontalStack=0;resizeParent=1;resizeLast=0;collapsible=1;marginBottom=0;rounded=1;shadow=0;strokeWidth=1;labelBackgroundColor=none;sketch=1;curveFitting=1;jiggle=2;" parent="WIyWlLk6GJQsqaUBKTNV-1" vertex="1">
          <mxGeometry x="280" y="461" width="160" height="148" as="geometry">
            <mxRectangle x="550" y="140" width="160" height="26" as="alternateBounds" />
          </mxGeometry>
        </mxCell>
        <mxCell id="4rKXWbHZXvkZWFOw5jDF-93" value="PK_Numero" style="text;align=left;verticalAlign=top;spacingLeft=4;spacingRight=4;overflow=hidden;rotatable=0;points=[[0,0.5],[1,0.5]];portConstraint=eastwest;rounded=1;shadow=0;html=0;labelBackgroundColor=none;sketch=1;curveFitting=1;jiggle=2;" parent="4rKXWbHZXvkZWFOw5jDF-90" vertex="1">
          <mxGeometry y="26" width="160" height="26" as="geometry" />
        </mxCell>
        <mxCell id="0gn058xGf3Xcak7O8wDM-5" value="ProtocoloDiof" style="text;align=left;verticalAlign=top;spacingLeft=4;spacingRight=4;overflow=hidden;rotatable=0;points=[[0,0.5],[1,0.5]];portConstraint=eastwest;rounded=1;shadow=0;html=0;labelBackgroundColor=none;sketch=1;curveFitting=1;jiggle=2;" parent="4rKXWbHZXvkZWFOw5jDF-90" vertex="1">
          <mxGeometry y="52" width="160" height="26" as="geometry" />
        </mxCell>
        <mxCell id="4rKXWbHZXvkZWFOw5jDF-91" value="UnidadeGestora" style="text;align=left;verticalAlign=top;spacingLeft=4;spacingRight=4;overflow=hidden;rotatable=0;points=[[0,0.5],[1,0.5]];portConstraint=eastwest;rounded=1;labelBackgroundColor=none;sketch=1;curveFitting=1;jiggle=2;" parent="4rKXWbHZXvkZWFOw5jDF-90" vertex="1">
          <mxGeometry y="78" width="160" height="26" as="geometry" />
        </mxCell>
        <mxCell id="4rKXWbHZXvkZWFOw5jDF-92" value="DataPublicacao" style="text;align=left;verticalAlign=top;spacingLeft=4;spacingRight=4;overflow=hidden;rotatable=0;points=[[0,0.5],[1,0.5]];portConstraint=eastwest;rounded=1;shadow=0;html=0;labelBackgroundColor=none;sketch=1;curveFitting=1;jiggle=2;" parent="4rKXWbHZXvkZWFOw5jDF-90" vertex="1">
          <mxGeometry y="104" width="160" height="22" as="geometry" />
        </mxCell>
        <mxCell id="4t3p0VnNCcJ4pohZNmJf-47" value="FK_Contrato" style="text;align=left;verticalAlign=top;spacingLeft=4;spacingRight=4;overflow=hidden;rotatable=0;points=[[0,0.5],[1,0.5]];portConstraint=eastwest;rounded=1;shadow=0;html=0;labelBackgroundColor=none;sketch=1;curveFitting=1;jiggle=2;" parent="4rKXWbHZXvkZWFOw5jDF-90" vertex="1">
          <mxGeometry y="126" width="160" height="22" as="geometry" />
        </mxCell>
        <mxCell id="GM_1_GzG-txwJzzJDk9_-0" value="Pessoas" style="swimlane;fontStyle=1;align=center;verticalAlign=top;childLayout=stackLayout;horizontal=1;startSize=26;horizontalStack=0;resizeParent=1;resizeLast=0;collapsible=1;marginBottom=0;rounded=1;shadow=0;strokeWidth=1;labelBackgroundColor=none;sketch=1;curveFitting=1;jiggle=2;" parent="WIyWlLk6GJQsqaUBKTNV-1" vertex="1">
          <mxGeometry x="279" y="629" width="160" height="160" as="geometry">
            <mxRectangle x="550" y="140" width="160" height="26" as="alternateBounds" />
          </mxGeometry>
        </mxCell>
        <mxCell id="GM_1_GzG-txwJzzJDk9_-1" value="PK_Matricula" style="text;align=left;verticalAlign=top;spacingLeft=4;spacingRight=4;overflow=hidden;rotatable=0;points=[[0,0.5],[1,0.5]];portConstraint=eastwest;rounded=1;labelBackgroundColor=none;sketch=1;curveFitting=1;jiggle=2;" parent="GM_1_GzG-txwJzzJDk9_-0" vertex="1">
          <mxGeometry y="26" width="160" height="26" as="geometry" />
        </mxCell>
        <mxCell id="GM_1_GzG-txwJzzJDk9_-4" value="Nome" style="text;align=left;verticalAlign=top;spacingLeft=4;spacingRight=4;overflow=hidden;rotatable=0;points=[[0,0.5],[1,0.5]];portConstraint=eastwest;rounded=1;shadow=0;html=0;labelBackgroundColor=none;sketch=1;curveFitting=1;jiggle=2;" parent="GM_1_GzG-txwJzzJDk9_-0" vertex="1">
          <mxGeometry y="52" width="160" height="26" as="geometry" />
        </mxCell>
        <mxCell id="GM_1_GzG-txwJzzJDk9_-5" value="CPF" style="text;align=left;verticalAlign=top;spacingLeft=4;spacingRight=4;overflow=hidden;rotatable=0;points=[[0,0.5],[1,0.5]];portConstraint=eastwest;rounded=1;shadow=0;html=0;labelBackgroundColor=none;sketch=1;curveFitting=1;jiggle=2;" parent="GM_1_GzG-txwJzzJDk9_-0" vertex="1">
          <mxGeometry y="78" width="160" height="26" as="geometry" />
        </mxCell>
        <mxCell id="GM_1_GzG-txwJzzJDk9_-2" value="UG" style="text;align=left;verticalAlign=top;spacingLeft=4;spacingRight=4;overflow=hidden;rotatable=0;points=[[0,0.5],[1,0.5]];portConstraint=eastwest;rounded=1;shadow=0;html=0;labelBackgroundColor=none;sketch=1;curveFitting=1;jiggle=2;" parent="GM_1_GzG-txwJzzJDk9_-0" vertex="1">
          <mxGeometry y="104" width="160" height="26" as="geometry" />
        </mxCell>
        <mxCell id="GM_1_GzG-txwJzzJDk9_-3" value="Setor" style="text;align=left;verticalAlign=top;spacingLeft=4;spacingRight=4;overflow=hidden;rotatable=0;points=[[0,0.5],[1,0.5]];portConstraint=eastwest;rounded=1;shadow=0;html=0;labelBackgroundColor=none;sketch=1;curveFitting=1;jiggle=2;" parent="GM_1_GzG-txwJzzJDk9_-0" vertex="1">
          <mxGeometry y="130" width="160" height="26" as="geometry" />
        </mxCell>
        <mxCell id="GM_1_GzG-txwJzzJDk9_-47" value="Pagamentos" style="swimlane;fontStyle=1;align=center;verticalAlign=top;childLayout=stackLayout;horizontal=1;startSize=26;horizontalStack=0;resizeParent=1;resizeLast=0;collapsible=1;marginBottom=0;rounded=1;shadow=0;strokeWidth=1;labelBackgroundColor=none;arcSize=12;sketch=1;curveFitting=1;jiggle=2;" parent="WIyWlLk6GJQsqaUBKTNV-1" vertex="1">
          <mxGeometry x="760" y="176" width="160" height="208" as="geometry">
            <mxRectangle x="550" y="140" width="160" height="26" as="alternateBounds" />
          </mxGeometry>
        </mxCell>
        <mxCell id="GM_1_GzG-txwJzzJDk9_-73" value="PK_NotaLancamento" style="text;align=left;verticalAlign=top;spacingLeft=4;spacingRight=4;overflow=hidden;rotatable=0;points=[[0,0.5],[1,0.5]];portConstraint=eastwest;rounded=1;labelBackgroundColor=none;sketch=1;curveFitting=1;jiggle=2;" parent="GM_1_GzG-txwJzzJDk9_-47" vertex="1">
          <mxGeometry y="26" width="160" height="26" as="geometry" />
        </mxCell>
        <mxCell id="GM_1_GzG-txwJzzJDk9_-48" value="PreparacaoPagamento" style="text;align=left;verticalAlign=top;spacingLeft=4;spacingRight=4;overflow=hidden;rotatable=0;points=[[0,0.5],[1,0.5]];portConstraint=eastwest;rounded=1;labelBackgroundColor=none;sketch=1;curveFitting=1;jiggle=2;" parent="GM_1_GzG-txwJzzJDk9_-47" vertex="1">
          <mxGeometry y="52" width="160" height="26" as="geometry" />
        </mxCell>
        <mxCell id="GM_1_GzG-txwJzzJDk9_-50" value="OrdemBancaria" style="text;align=left;verticalAlign=top;spacingLeft=4;spacingRight=4;overflow=hidden;rotatable=0;points=[[0,0.5],[1,0.5]];portConstraint=eastwest;rounded=1;shadow=0;html=0;labelBackgroundColor=none;sketch=1;curveFitting=1;jiggle=2;" parent="GM_1_GzG-txwJzzJDk9_-47" vertex="1">
          <mxGeometry y="78" width="160" height="26" as="geometry" />
        </mxCell>
        <mxCell id="GM_1_GzG-txwJzzJDk9_-49" value="Valor" style="text;align=left;verticalAlign=top;spacingLeft=4;spacingRight=4;overflow=hidden;rotatable=0;points=[[0,0.5],[1,0.5]];portConstraint=eastwest;rounded=1;shadow=0;html=0;labelBackgroundColor=none;sketch=1;curveFitting=1;jiggle=2;" parent="GM_1_GzG-txwJzzJDk9_-47" vertex="1">
          <mxGeometry y="104" width="160" height="26" as="geometry" />
        </mxCell>
        <mxCell id="GM_1_GzG-txwJzzJDk9_-71" value="DataPagamento" style="text;align=left;verticalAlign=top;spacingLeft=4;spacingRight=4;overflow=hidden;rotatable=0;points=[[0,0.5],[1,0.5]];portConstraint=eastwest;rounded=1;shadow=0;html=0;labelBackgroundColor=none;sketch=1;curveFitting=1;jiggle=2;" parent="GM_1_GzG-txwJzzJDk9_-47" vertex="1">
          <mxGeometry y="130" width="160" height="26" as="geometry" />
        </mxCell>
        <mxCell id="GM_1_GzG-txwJzzJDk9_-72" value="Parcela (1/1 ou 1/12)" style="text;align=left;verticalAlign=top;spacingLeft=4;spacingRight=4;overflow=hidden;rotatable=0;points=[[0,0.5],[1,0.5]];portConstraint=eastwest;rounded=1;shadow=0;html=0;labelBackgroundColor=none;sketch=1;curveFitting=1;jiggle=2;" parent="GM_1_GzG-txwJzzJDk9_-47" vertex="1">
          <mxGeometry y="156" width="160" height="26" as="geometry" />
        </mxCell>
        <mxCell id="Nascha3WeQO7HvrKf4Pl-0" value="FK_NotaEmpenho" style="text;align=left;verticalAlign=top;spacingLeft=4;spacingRight=4;overflow=hidden;rotatable=0;points=[[0,0.5],[1,0.5]];portConstraint=eastwest;rounded=1;shadow=0;html=0;labelBackgroundColor=none;sketch=1;curveFitting=1;jiggle=2;" parent="GM_1_GzG-txwJzzJDk9_-47" vertex="1">
          <mxGeometry y="182" width="160" height="26" as="geometry" />
        </mxCell>
        <mxCell id="uTrhGUw49bpmI3_SIlwM-3" value="Modalidade pode ser:&lt;br&gt;&lt;br&gt;&lt;span style=&quot;font-weight: normal;&quot;&gt;Ordinario ( valor fixo 1x)&lt;br style=&quot;font-size: 10px;&quot;&gt;&lt;br style=&quot;font-size: 10px;&quot;&gt;Estimado (valor parcelado geralmente em 12x)&lt;br style=&quot;font-size: 10px;&quot;&gt;&lt;br style=&quot;font-size: 10px;&quot;&gt;Global (Valor cmo parcelas determinadas)&lt;/span&gt;" style="shape=note;size=16;whiteSpace=wrap;html=1;labelBackgroundColor=none;spacingLeft=4;spacingBottom=4;spacingRight=4;spacingTop=4;spacing=4;fontSize=10;fontStyle=1;fontFamily=Verdana;rounded=1;sketch=1;curveFitting=1;jiggle=2;" parent="WIyWlLk6GJQsqaUBKTNV-1" vertex="1">
          <mxGeometry x="760" y="399" width="160" height="140" as="geometry" />
        </mxCell>
        <mxCell id="4t3p0VnNCcJ4pohZNmJf-4" value="" style="endArrow=none;html=1;rounded=1;labelBackgroundColor=none;fontColor=default;sketch=1;curveFitting=1;jiggle=2;" parent="WIyWlLk6GJQsqaUBKTNV-1" edge="1">
          <mxGeometry width="50" height="50" relative="1" as="geometry">
            <mxPoint x="280" y="79" as="sourcePoint" />
            <mxPoint x="201" y="79" as="targetPoint" />
          </mxGeometry>
        </mxCell>
        <mxCell id="4t3p0VnNCcJ4pohZNmJf-5" value="(1)" style="resizable=0;align=left;verticalAlign=bottom;labelBackgroundColor=none;fontSize=10;rounded=1;fontStyle=1;sketch=1;curveFitting=1;jiggle=2;" parent="WIyWlLk6GJQsqaUBKTNV-1" connectable="0" vertex="1">
          <mxGeometry x="264" y="78.00000000000006" as="geometry" />
        </mxCell>
        <mxCell id="4t3p0VnNCcJ4pohZNmJf-6" value="(0,N)" style="resizable=0;align=right;verticalAlign=bottom;labelBackgroundColor=none;fontSize=10;rounded=1;fontStyle=1;sketch=1;curveFitting=1;jiggle=2;" parent="WIyWlLk6GJQsqaUBKTNV-1" connectable="0" vertex="1">
          <mxGeometry x="225.8888888888888" y="78.00000000000006" as="geometry" />
        </mxCell>
        <mxCell id="4t3p0VnNCcJ4pohZNmJf-13" value="" style="endArrow=none;html=1;rounded=1;labelBackgroundColor=none;fontColor=default;sketch=1;curveFitting=1;jiggle=2;" parent="WIyWlLk6GJQsqaUBKTNV-1" edge="1">
          <mxGeometry width="50" height="50" relative="1" as="geometry">
            <mxPoint x="519" y="78" as="sourcePoint" />
            <mxPoint x="440" y="78" as="targetPoint" />
          </mxGeometry>
        </mxCell>
        <mxCell id="4t3p0VnNCcJ4pohZNmJf-14" value="(1)" style="resizable=0;align=left;verticalAlign=bottom;labelBackgroundColor=none;fontSize=10;rounded=1;fontStyle=1;sketch=1;curveFitting=1;jiggle=2;" parent="WIyWlLk6GJQsqaUBKTNV-1" connectable="0" vertex="1">
          <mxGeometry x="500" y="77.00000000000006" as="geometry" />
        </mxCell>
        <mxCell id="4t3p0VnNCcJ4pohZNmJf-15" value="(1)" style="resizable=0;align=right;verticalAlign=bottom;labelBackgroundColor=none;fontSize=10;rounded=1;fontStyle=1;sketch=1;curveFitting=1;jiggle=2;" parent="WIyWlLk6GJQsqaUBKTNV-1" connectable="0" vertex="1">
          <mxGeometry x="455.9988888888888" y="77.00000000000006" as="geometry" />
        </mxCell>
        <mxCell id="4t3p0VnNCcJ4pohZNmJf-20" value="(1,N)" style="resizable=0;align=left;verticalAlign=bottom;labelBackgroundColor=none;fontSize=10;rounded=1;fontStyle=1;sketch=1;curveFitting=1;jiggle=2;" parent="WIyWlLk6GJQsqaUBKTNV-1" connectable="0" vertex="1">
          <mxGeometry x="492" y="239.00000000000006" as="geometry" />
        </mxCell>
        <mxCell id="4t3p0VnNCcJ4pohZNmJf-21" value="(1,1)" style="resizable=0;align=right;verticalAlign=bottom;labelBackgroundColor=none;fontSize=10;rounded=1;fontStyle=1;sketch=1;curveFitting=1;jiggle=2;" parent="WIyWlLk6GJQsqaUBKTNV-1" connectable="0" vertex="1">
          <mxGeometry x="467.8888888888888" y="239.00000000000006" as="geometry" />
        </mxCell>
        <mxCell id="4t3p0VnNCcJ4pohZNmJf-22" value="(1)" style="resizable=0;align=left;verticalAlign=bottom;labelBackgroundColor=none;fontSize=10;rounded=1;fontStyle=1;sketch=1;curveFitting=1;jiggle=2;" parent="WIyWlLk6GJQsqaUBKTNV-1" connectable="0" vertex="1">
          <mxGeometry x="263" y="280.36000000000007" as="geometry" />
        </mxCell>
        <mxCell id="4t3p0VnNCcJ4pohZNmJf-23" value="(0,N)" style="resizable=0;align=right;verticalAlign=bottom;labelBackgroundColor=none;fontSize=10;rounded=1;fontStyle=1;sketch=1;curveFitting=1;jiggle=2;" parent="WIyWlLk6GJQsqaUBKTNV-1" connectable="0" vertex="1">
          <mxGeometry x="227.8888888888888" y="279.36000000000007" as="geometry" />
        </mxCell>
        <mxCell id="4t3p0VnNCcJ4pohZNmJf-24" value="" style="endArrow=none;html=1;rounded=1;labelBackgroundColor=none;fontColor=default;sketch=1;curveFitting=1;jiggle=2;" parent="WIyWlLk6GJQsqaUBKTNV-1" edge="1">
          <mxGeometry width="50" height="50" relative="1" as="geometry">
            <mxPoint x="281" y="279.76" as="sourcePoint" />
            <mxPoint x="202" y="279.76" as="targetPoint" />
          </mxGeometry>
        </mxCell>
        <mxCell id="4t3p0VnNCcJ4pohZNmJf-27" value="" style="endArrow=none;html=1;rounded=1;labelBackgroundColor=none;fontColor=default;entryX=0.996;entryY=0.692;entryDx=0;entryDy=0;entryPerimeter=0;exitX=0;exitY=0.5;exitDx=0;exitDy=0;sketch=1;curveFitting=1;jiggle=2;" parent="WIyWlLk6GJQsqaUBKTNV-1" edge="1">
          <mxGeometry width="50" height="50" relative="1" as="geometry">
            <mxPoint x="520" y="241" as="sourcePoint" />
            <mxPoint x="439.3599999999999" y="241.99200000000008" as="targetPoint" />
            <Array as="points">
              <mxPoint x="479" y="241" />
            </Array>
          </mxGeometry>
        </mxCell>
        <mxCell id="4t3p0VnNCcJ4pohZNmJf-30" value="" style="endArrow=none;html=1;rounded=1;labelBackgroundColor=none;fontColor=default;sketch=1;curveFitting=1;jiggle=2;exitX=0;exitY=0.5;exitDx=0;exitDy=0;" parent="WIyWlLk6GJQsqaUBKTNV-1" edge="1" source="35J99zNZ6K1GI4u_yEDj-1">
          <mxGeometry width="50" height="50" relative="1" as="geometry">
            <mxPoint x="520" y="438" as="sourcePoint" />
            <mxPoint x="380" y="380" as="targetPoint" />
            <Array as="points">
              <mxPoint x="480" y="629" />
              <mxPoint x="480" y="440" />
              <mxPoint x="380" y="438" />
            </Array>
          </mxGeometry>
        </mxCell>
        <mxCell id="4t3p0VnNCcJ4pohZNmJf-36" value="" style="endArrow=none;html=1;rounded=1;labelBackgroundColor=none;fontColor=default;exitX=0.5;exitY=1;exitDx=0;exitDy=0;sketch=1;curveFitting=1;jiggle=2;" parent="WIyWlLk6GJQsqaUBKTNV-1" source="zkfFHV4jXpPFQw0GAbJ--0" edge="1">
          <mxGeometry width="50" height="50" relative="1" as="geometry">
            <mxPoint x="358.39999999999986" y="402.32400000000007" as="sourcePoint" />
            <mxPoint x="360" y="458" as="targetPoint" />
          </mxGeometry>
        </mxCell>
        <mxCell id="4t3p0VnNCcJ4pohZNmJf-50" value="(1,1)" style="resizable=0;align=right;verticalAlign=bottom;labelBackgroundColor=none;fontSize=10;rounded=1;fontStyle=1;sketch=1;curveFitting=1;jiggle=2;" parent="WIyWlLk6GJQsqaUBKTNV-1" connectable="0" vertex="1">
          <mxGeometry x="513.9988888888888" y="417.00000000000006" as="geometry" />
        </mxCell>
        <mxCell id="4t3p0VnNCcJ4pohZNmJf-51" value="(1,N)" style="resizable=0;align=left;verticalAlign=bottom;labelBackgroundColor=none;fontSize=10;rounded=1;fontStyle=1;sketch=1;curveFitting=1;jiggle=2;" parent="WIyWlLk6GJQsqaUBKTNV-1" connectable="0" vertex="1">
          <mxGeometry x="680" y="238.00000000000006" as="geometry" />
        </mxCell>
        <mxCell id="4t3p0VnNCcJ4pohZNmJf-52" value="(1)" style="resizable=0;align=right;verticalAlign=bottom;labelBackgroundColor=none;fontSize=10;rounded=1;fontStyle=1;sketch=1;curveFitting=1;jiggle=2;" parent="WIyWlLk6GJQsqaUBKTNV-1" connectable="0" vertex="1">
          <mxGeometry x="758.9988888888888" y="238.00000000000006" as="geometry" />
        </mxCell>
        <mxCell id="4t3p0VnNCcJ4pohZNmJf-53" value="" style="endArrow=none;html=1;rounded=1;labelBackgroundColor=none;fontColor=default;sketch=1;curveFitting=1;jiggle=2;" parent="WIyWlLk6GJQsqaUBKTNV-1" edge="1">
          <mxGeometry width="50" height="50" relative="1" as="geometry">
            <mxPoint x="759" y="241.26" as="sourcePoint" />
            <mxPoint x="680" y="241.26" as="targetPoint" />
          </mxGeometry>
        </mxCell>
        <mxCell id="4t3p0VnNCcJ4pohZNmJf-58" value="Resolucao" style="swimlane;fontStyle=1;align=center;verticalAlign=top;childLayout=stackLayout;horizontal=1;startSize=26;horizontalStack=0;resizeParent=1;resizeLast=0;collapsible=1;marginBottom=0;rounded=1;shadow=0;strokeWidth=1;labelBackgroundColor=none;sketch=1;curveFitting=1;jiggle=2;" parent="WIyWlLk6GJQsqaUBKTNV-1" vertex="1">
          <mxGeometry x="40" y="461" width="160" height="156" as="geometry">
            <mxRectangle x="550" y="140" width="160" height="26" as="alternateBounds" />
          </mxGeometry>
        </mxCell>
        <mxCell id="4t3p0VnNCcJ4pohZNmJf-87" value="Tipo" style="text;align=left;verticalAlign=top;spacingLeft=4;spacingRight=4;overflow=hidden;rotatable=0;points=[[0,0.5],[1,0.5]];portConstraint=eastwest;rounded=1;shadow=0;html=0;labelBackgroundColor=none;sketch=1;curveFitting=1;jiggle=2;" parent="4t3p0VnNCcJ4pohZNmJf-58" vertex="1">
          <mxGeometry y="26" width="160" height="26" as="geometry" />
        </mxCell>
        <mxCell id="4t3p0VnNCcJ4pohZNmJf-88" value="DataInicio" style="text;align=left;verticalAlign=top;spacingLeft=4;spacingRight=4;overflow=hidden;rotatable=0;points=[[0,0.5],[1,0.5]];portConstraint=eastwest;rounded=1;shadow=0;html=0;labelBackgroundColor=none;sketch=1;curveFitting=1;jiggle=2;" parent="4t3p0VnNCcJ4pohZNmJf-58" vertex="1">
          <mxGeometry y="52" width="160" height="26" as="geometry" />
        </mxCell>
        <mxCell id="4t3p0VnNCcJ4pohZNmJf-89" value="DataFim" style="text;align=left;verticalAlign=top;spacingLeft=4;spacingRight=4;overflow=hidden;rotatable=0;points=[[0,0.5],[1,0.5]];portConstraint=eastwest;rounded=1;shadow=0;html=0;labelBackgroundColor=none;sketch=1;curveFitting=1;jiggle=2;" parent="4t3p0VnNCcJ4pohZNmJf-58" vertex="1">
          <mxGeometry y="78" width="160" height="26" as="geometry" />
        </mxCell>
        <mxCell id="4t3p0VnNCcJ4pohZNmJf-59" value="FK_Matricula (Pessoa)" style="text;align=left;verticalAlign=top;spacingLeft=4;spacingRight=4;overflow=hidden;rotatable=0;points=[[0,0.5],[1,0.5]];portConstraint=eastwest;rounded=1;shadow=0;html=0;labelBackgroundColor=none;sketch=1;curveFitting=1;jiggle=2;" parent="4t3p0VnNCcJ4pohZNmJf-58" vertex="1">
          <mxGeometry y="104" width="160" height="26" as="geometry" />
        </mxCell>
        <mxCell id="4t3p0VnNCcJ4pohZNmJf-60" value="FK_Numero (Portaria)" style="text;align=left;verticalAlign=top;spacingLeft=4;spacingRight=4;overflow=hidden;rotatable=0;points=[[0,0.5],[1,0.5]];portConstraint=eastwest;rounded=1;shadow=0;html=0;labelBackgroundColor=none;sketch=1;curveFitting=1;jiggle=2;" parent="4t3p0VnNCcJ4pohZNmJf-58" vertex="1">
          <mxGeometry y="130" width="160" height="26" as="geometry" />
        </mxCell>
        <mxCell id="4t3p0VnNCcJ4pohZNmJf-69" value="(1)" style="resizable=0;align=left;verticalAlign=bottom;labelBackgroundColor=none;fontSize=10;rounded=1;fontStyle=1;sketch=1;curveFitting=1;jiggle=2;" parent="WIyWlLk6GJQsqaUBKTNV-1" connectable="0" vertex="1">
          <mxGeometry x="341" y="418" as="geometry" />
        </mxCell>
        <mxCell id="4t3p0VnNCcJ4pohZNmJf-70" value="(1,N)" style="resizable=0;align=right;verticalAlign=bottom;labelBackgroundColor=none;fontSize=10;rounded=1;fontStyle=1;sketch=1;curveFitting=1;jiggle=2;" parent="WIyWlLk6GJQsqaUBKTNV-1" connectable="0" vertex="1">
          <mxGeometry x="358.9988888888888" y="458" as="geometry" />
        </mxCell>
        <mxCell id="4t3p0VnNCcJ4pohZNmJf-79" value="(1)" style="resizable=0;align=left;verticalAlign=bottom;labelBackgroundColor=none;fontSize=10;rounded=1;fontStyle=1;sketch=1;curveFitting=1;jiggle=2;" parent="WIyWlLk6GJQsqaUBKTNV-1" connectable="0" vertex="1">
          <mxGeometry x="263" y="500.96000000000004" as="geometry" />
        </mxCell>
        <mxCell id="4t3p0VnNCcJ4pohZNmJf-80" value="(1,N)" style="resizable=0;align=right;verticalAlign=bottom;labelBackgroundColor=none;fontSize=10;rounded=1;fontStyle=1;sketch=1;curveFitting=1;jiggle=2;" parent="WIyWlLk6GJQsqaUBKTNV-1" connectable="0" vertex="1">
          <mxGeometry x="227.8888888888888" y="499.96000000000004" as="geometry" />
        </mxCell>
        <mxCell id="4t3p0VnNCcJ4pohZNmJf-81" value="" style="endArrow=none;html=1;rounded=1;labelBackgroundColor=none;fontColor=default;sketch=1;curveFitting=1;jiggle=2;" parent="WIyWlLk6GJQsqaUBKTNV-1" edge="1">
          <mxGeometry width="50" height="50" relative="1" as="geometry">
            <mxPoint x="280" y="500" as="sourcePoint" />
            <mxPoint x="202" y="500.36" as="targetPoint" />
          </mxGeometry>
        </mxCell>
        <mxCell id="4t3p0VnNCcJ4pohZNmJf-83" value="(1)" style="resizable=0;align=left;verticalAlign=bottom;labelBackgroundColor=none;fontSize=10;rounded=1;fontStyle=1;sketch=1;curveFitting=1;jiggle=2;" parent="WIyWlLk6GJQsqaUBKTNV-1" connectable="0" vertex="1">
          <mxGeometry x="261" y="667.0000000000001" as="geometry" />
        </mxCell>
        <mxCell id="4t3p0VnNCcJ4pohZNmJf-84" value="(1,N)" style="resizable=0;align=right;verticalAlign=bottom;labelBackgroundColor=none;fontSize=10;rounded=1;fontStyle=1;sketch=1;curveFitting=1;jiggle=2;" parent="WIyWlLk6GJQsqaUBKTNV-1" connectable="0" vertex="1">
          <mxGeometry x="145.9988888888888" y="633" as="geometry" />
        </mxCell>
        <mxCell id="4t3p0VnNCcJ4pohZNmJf-90" value="" style="endArrow=none;html=1;rounded=1;labelBackgroundColor=none;fontColor=default;entryX=0.754;entryY=0.956;entryDx=0;entryDy=0;entryPerimeter=0;exitX=0.006;exitY=0.885;exitDx=0;exitDy=0;exitPerimeter=0;sketch=1;curveFitting=1;jiggle=2;" parent="WIyWlLk6GJQsqaUBKTNV-1" edge="1">
          <mxGeometry width="50" height="50" relative="1" as="geometry">
            <mxPoint x="278.96000000000004" y="678.01" as="sourcePoint" />
            <mxPoint x="117.63999999999987" y="616.996" as="targetPoint" />
            <Array as="points">
              <mxPoint x="118" y="678" />
            </Array>
          </mxGeometry>
        </mxCell>
        <mxCell id="gDb8IjBTKXogADUJp8lS-0" value="Modelo Lógico - Gestor de contratos" style="text;html=1;strokeColor=none;fillColor=none;align=center;verticalAlign=middle;whiteSpace=wrap;rounded=1;fontSize=20;fontFamily=Architects Daughter;sketch=1;curveFitting=1;jiggle=2;fontSource=https%3A%2F%2Ffonts.googleapis.com%2Fcss%3Ffamily%3DArchitects%2BDaughter;" parent="WIyWlLk6GJQsqaUBKTNV-1" vertex="1">
          <mxGeometry x="730" y="765" width="390" height="30" as="geometry" />
        </mxCell>
        <mxCell id="35J99zNZ6K1GI4u_yEDj-0" value="Usuario" style="swimlane;fontStyle=1;align=center;verticalAlign=top;childLayout=stackLayout;horizontal=1;startSize=26;horizontalStack=0;resizeParent=1;resizeLast=0;collapsible=1;marginBottom=0;rounded=1;shadow=0;strokeWidth=1;labelBackgroundColor=none;arcSize=15;sketch=1;curveFitting=1;jiggle=2;" vertex="1" parent="WIyWlLk6GJQsqaUBKTNV-1">
          <mxGeometry x="520" y="590" width="162.31" height="138" as="geometry">
            <mxRectangle x="550" y="140" width="160" height="26" as="alternateBounds" />
          </mxGeometry>
        </mxCell>
        <mxCell id="35J99zNZ6K1GI4u_yEDj-1" value="PK_Login" style="text;align=left;verticalAlign=top;spacingLeft=4;spacingRight=4;overflow=hidden;rotatable=0;points=[[0,0.5],[1,0.5]];portConstraint=eastwest;rounded=1;shadow=0;html=0;labelBackgroundColor=none;sketch=1;curveFitting=1;jiggle=2;" vertex="1" parent="35J99zNZ6K1GI4u_yEDj-0">
          <mxGeometry y="26" width="162.31" height="26" as="geometry" />
        </mxCell>
        <mxCell id="35J99zNZ6K1GI4u_yEDj-2" value="Senha" style="text;align=left;verticalAlign=top;spacingLeft=4;spacingRight=4;overflow=hidden;rotatable=0;points=[[0,0.5],[1,0.5]];portConstraint=eastwest;rounded=1;shadow=0;html=0;labelBackgroundColor=none;sketch=1;curveFitting=1;jiggle=2;" vertex="1" parent="35J99zNZ6K1GI4u_yEDj-0">
          <mxGeometry y="52" width="162.31" height="26" as="geometry" />
        </mxCell>
        <mxCell id="35J99zNZ6K1GI4u_yEDj-3" value="Email" style="text;align=left;verticalAlign=top;spacingLeft=4;spacingRight=4;overflow=hidden;rotatable=0;points=[[0,0.5],[1,0.5]];portConstraint=eastwest;rounded=1;shadow=0;html=0;labelBackgroundColor=none;sketch=1;curveFitting=1;jiggle=2;" vertex="1" parent="35J99zNZ6K1GI4u_yEDj-0">
          <mxGeometry y="78" width="162.31" height="30" as="geometry" />
        </mxCell>
        <mxCell id="35J99zNZ6K1GI4u_yEDj-4" value="FK_Extrato (Contrato)" style="text;align=left;verticalAlign=top;spacingLeft=4;spacingRight=4;overflow=hidden;rotatable=0;points=[[0,0.5],[1,0.5]];portConstraint=eastwest;rounded=1;shadow=0;html=0;labelBackgroundColor=none;sketch=1;curveFitting=1;jiggle=2;" vertex="1" parent="35J99zNZ6K1GI4u_yEDj-0">
          <mxGeometry y="108" width="162.31" height="30" as="geometry" />
        </mxCell>
        <mxCell id="35J99zNZ6K1GI4u_yEDj-7" value="" style="endArrow=none;html=1;rounded=1;labelBackgroundColor=none;fontColor=default;exitX=0.5;exitY=1;exitDx=0;exitDy=0;sketch=1;curveFitting=1;jiggle=2;entryX=-0.012;entryY=1.115;entryDx=0;entryDy=0;entryPerimeter=0;" edge="1" parent="WIyWlLk6GJQsqaUBKTNV-1" target="v4fzigUWRRETPaChCbzR-0">
          <mxGeometry width="50" height="50" relative="1" as="geometry">
            <mxPoint x="410" y="380" as="sourcePoint" />
            <mxPoint x="520" y="400" as="targetPoint" />
            <Array as="points">
              <mxPoint x="410" y="420" />
              <mxPoint x="460" y="420" />
            </Array>
          </mxGeometry>
        </mxCell>
        <mxCell id="35J99zNZ6K1GI4u_yEDj-8" value="(1,1)" style="resizable=0;align=right;verticalAlign=bottom;labelBackgroundColor=none;fontSize=10;rounded=1;fontStyle=1;sketch=1;curveFitting=1;jiggle=2;" connectable="0" vertex="1" parent="WIyWlLk6GJQsqaUBKTNV-1">
          <mxGeometry x="538.9988888888888" y="433.00000000000006" as="geometry">
            <mxPoint x="-101" y="-16" as="offset" />
          </mxGeometry>
        </mxCell>
        <mxCell id="35J99zNZ6K1GI4u_yEDj-9" value="(1,N)" style="resizable=0;align=left;verticalAlign=bottom;labelBackgroundColor=none;fontSize=10;rounded=1;fontStyle=1;sketch=1;curveFitting=1;jiggle=2;" connectable="0" vertex="1" parent="WIyWlLk6GJQsqaUBKTNV-1">
          <mxGeometry x="492" y="629" as="geometry" />
        </mxCell>
        <mxCell id="35J99zNZ6K1GI4u_yEDj-10" value="(1,1)" style="resizable=0;align=right;verticalAlign=bottom;labelBackgroundColor=none;fontSize=10;rounded=1;fontStyle=1;sketch=1;curveFitting=1;jiggle=2;" connectable="0" vertex="1" parent="WIyWlLk6GJQsqaUBKTNV-1">
          <mxGeometry x="487.8888888888888" y="247.00000000000006" as="geometry">
            <mxPoint x="-80" y="188" as="offset" />
          </mxGeometry>
        </mxCell>
      </root>
    </mxGraphModel>
  </diagram>
  <diagram id="1sHitql49sPpDARjFod4" name="Conceitual">
    <mxGraphModel dx="1418" dy="820" grid="1" gridSize="10" guides="1" tooltips="1" connect="1" arrows="1" fold="1" page="1" pageScale="1" pageWidth="1169" pageHeight="827" math="0" shadow="0">
      <root>
        <mxCell id="0" />
        <mxCell id="1" parent="0" />
        <mxCell id="40VbqlPHJVoH4Nh0b0TG-106" value="PK_Extrato" style="text;align=right;verticalAlign=middle;spacingLeft=0;spacingRight=0;overflow=hidden;rotatable=0;points=[[0,0.5],[1,0.5]];portConstraint=eastwest;rounded=1;shadow=0;html=0;fontSize=6;fontFamily=Verdana;spacing=0;" parent="1" vertex="1">
          <mxGeometry x="438.96000000000004" y="154" width="38" height="10" as="geometry" />
        </mxCell>
        <mxCell id="40VbqlPHJVoH4Nh0b0TG-107" value="Contratante" style="text;align=right;verticalAlign=middle;spacingLeft=0;spacingRight=0;overflow=hidden;rotatable=0;points=[[0,0.5],[1,0.5]];portConstraint=eastwest;rounded=1;shadow=0;html=0;fontSize=6;fontFamily=Verdana;spacing=0;" parent="1" vertex="1">
          <mxGeometry x="438.96000000000004" y="169" width="38" height="10" as="geometry" />
        </mxCell>
        <mxCell id="40VbqlPHJVoH4Nh0b0TG-109" value="Objeto" style="text;align=right;verticalAlign=middle;spacingLeft=0;spacingRight=0;overflow=hidden;rotatable=0;points=[[0,0.5],[1,0.5]];portConstraint=eastwest;rounded=1;fontSize=6;spacing=0;fontFamily=Verdana;" parent="1" vertex="1">
          <mxGeometry x="438.96000000000004" y="184" width="38" height="10" as="geometry" />
        </mxCell>
        <mxCell id="40VbqlPHJVoH4Nh0b0TG-110" value="Vigencia" style="text;align=right;verticalAlign=middle;spacingLeft=0;spacingRight=0;overflow=hidden;rotatable=0;points=[[0,0.5],[1,0.5]];portConstraint=eastwest;rounded=1;fontSize=6;spacing=0;fontFamily=Verdana;" parent="1" vertex="1">
          <mxGeometry x="438.96000000000004" y="199" width="38" height="10" as="geometry" />
        </mxCell>
        <mxCell id="40VbqlPHJVoH4Nh0b0TG-112" value="DataInicio" style="text;align=right;verticalAlign=middle;spacingLeft=0;spacingRight=0;overflow=hidden;rotatable=0;points=[[0,0.5],[1,0.5]];portConstraint=eastwest;rounded=1;shadow=0;html=0;fontSize=6;spacing=0;fontFamily=Verdana;" parent="1" vertex="1">
          <mxGeometry x="438.96000000000004" y="214" width="38" height="10" as="geometry" />
        </mxCell>
        <mxCell id="40VbqlPHJVoH4Nh0b0TG-113" value="LinkPublico" style="text;align=right;verticalAlign=middle;spacingLeft=0;spacingRight=0;overflow=hidden;rotatable=0;points=[[0,0.5],[1,0.5]];portConstraint=eastwest;rounded=1;shadow=0;html=0;fontSize=6;spacing=0;fontFamily=Verdana;spacingTop=0;" parent="1" vertex="1">
          <mxGeometry x="436.96000000000004" y="244" width="40" height="10" as="geometry" />
        </mxCell>
        <mxCell id="40VbqlPHJVoH4Nh0b0TG-114" value="DataAssinatura" style="text;align=right;verticalAlign=middle;spacingLeft=0;spacingRight=0;overflow=hidden;rotatable=0;points=[[0,0.5],[1,0.5]];portConstraint=eastwest;rounded=1;shadow=0;html=0;fontSize=6;spacing=0;fontFamily=Verdana;" parent="1" vertex="1">
          <mxGeometry x="417.96" y="259" width="50" height="10" as="geometry" />
        </mxCell>
        <mxCell id="40VbqlPHJVoH4Nh0b0TG-115" value="ProtocoloDiof" style="text;align=right;verticalAlign=middle;spacingLeft=0;spacingRight=0;overflow=hidden;rotatable=0;points=[[0,0.5],[1,0.5]];portConstraint=eastwest;rounded=1;fontSize=6;spacing=0;fontFamily=Verdana;" parent="1" vertex="1">
          <mxGeometry x="436.96000000000004" y="274" width="40" height="10" as="geometry" />
        </mxCell>
        <mxCell id="40VbqlPHJVoH4Nh0b0TG-116" value="Modalidade" style="text;align=right;verticalAlign=middle;spacingLeft=0;spacingRight=0;overflow=hidden;rotatable=0;points=[[0,0.5],[1,0.5]];portConstraint=eastwest;rounded=1;fontSize=6;spacing=0;fontFamily=Verdana;" parent="1" vertex="1">
          <mxGeometry x="438.96000000000004" y="289" width="38" height="10" as="geometry" />
        </mxCell>
        <mxCell id="40VbqlPHJVoH4Nh0b0TG-117" value="Valor" style="text;align=right;verticalAlign=middle;spacingLeft=0;spacingRight=0;overflow=hidden;rotatable=0;points=[[0,0.5],[1,0.5]];portConstraint=eastwest;rounded=1;fontSize=6;spacing=0;fontFamily=Verdana;" parent="1" vertex="1">
          <mxGeometry x="458.96000000000004" y="304" width="18" height="10" as="geometry" />
        </mxCell>
        <mxCell id="Z4WY7kCoV3FBbiAQLUHk-62" value="Possui" style="shape=rhombus;perimeter=rhombusPerimeter;align=center;hachureGap=4;fontFamily=Architects Daughter;fontSource=https%3A%2F%2Ffonts.googleapis.com%2Fcss%3Ffamily%3DArchitects%2BDaughter;fontSize=14;whiteSpace=wrap;html=1;spacing=2;" parent="1" vertex="1">
          <mxGeometry x="281" y="260" width="80" height="40" as="geometry" />
        </mxCell>
        <mxCell id="Q4-vWP2W6IJlQU7o8KvU-1" value="ProcessoSei" style="text;align=right;verticalAlign=middle;spacingLeft=0;spacingRight=0;overflow=hidden;rotatable=0;points=[[0,0.5],[1,0.5]];portConstraint=eastwest;rounded=1;shadow=0;html=0;fontSize=6;spacing=0;fontFamily=Verdana;" parent="1" vertex="1">
          <mxGeometry x="438.96000000000004" y="229" width="38" height="10" as="geometry" />
        </mxCell>
        <mxCell id="Q4-vWP2W6IJlQU7o8KvU-9" value="" style="ellipse;fillColor=strokeColor;html=1;" parent="1" vertex="1">
          <mxGeometry x="479.96000000000004" y="154" width="10" height="10" as="geometry" />
        </mxCell>
        <mxCell id="Q4-vWP2W6IJlQU7o8KvU-14" value="" style="ellipse;" parent="1" vertex="1">
          <mxGeometry x="479.96000000000004" y="259" width="10" height="10" as="geometry" />
        </mxCell>
        <mxCell id="Q4-vWP2W6IJlQU7o8KvU-16" value="" style="ellipse;" parent="1" vertex="1">
          <mxGeometry x="479.96000000000004" y="274" width="10" height="10" as="geometry" />
        </mxCell>
        <mxCell id="Q4-vWP2W6IJlQU7o8KvU-19" value="" style="ellipse;" parent="1" vertex="1">
          <mxGeometry x="479.96000000000004" y="289" width="10" height="10" as="geometry" />
        </mxCell>
        <mxCell id="Q4-vWP2W6IJlQU7o8KvU-21" value="" style="ellipse;" parent="1" vertex="1">
          <mxGeometry x="479.96000000000004" y="304" width="10" height="10" as="geometry" />
        </mxCell>
        <mxCell id="Q4-vWP2W6IJlQU7o8KvU-23" value="" style="ellipse;" parent="1" vertex="1">
          <mxGeometry x="479.96000000000004" y="169" width="10" height="10" as="geometry" />
        </mxCell>
        <mxCell id="Q4-vWP2W6IJlQU7o8KvU-25" value="" style="ellipse;" parent="1" vertex="1">
          <mxGeometry x="479.96000000000004" y="184" width="10" height="10" as="geometry" />
        </mxCell>
        <mxCell id="Q4-vWP2W6IJlQU7o8KvU-27" value="" style="ellipse;" parent="1" vertex="1">
          <mxGeometry x="479.96000000000004" y="199" width="10" height="10" as="geometry" />
        </mxCell>
        <mxCell id="Q4-vWP2W6IJlQU7o8KvU-31" value="" style="ellipse;" parent="1" vertex="1">
          <mxGeometry x="479.96000000000004" y="214" width="10" height="10" as="geometry" />
        </mxCell>
        <mxCell id="q42bRMdQUH0og58Xp4nZ-2" value="" style="ellipse;" parent="1" vertex="1">
          <mxGeometry x="479.96000000000004" y="229" width="10" height="10" as="geometry" />
        </mxCell>
        <mxCell id="Qjtkibk4rSq-6tBPrJSs-4" value="Contrato" style="whiteSpace=wrap;html=1;align=center;hachureGap=4;fontFamily=Architects Daughter;fontSource=https%3A%2F%2Ffonts.googleapis.com%2Fcss%3Ffamily%3DArchitects%2BDaughter;fontSize=20;" parent="1" vertex="1">
          <mxGeometry x="401" y="320" width="120" height="40" as="geometry" />
        </mxCell>
        <mxCell id="Qjtkibk4rSq-6tBPrJSs-5" value="Aditivos" style="shape=ext;margin=3;double=1;whiteSpace=wrap;html=1;align=center;fontFamily=Architects Daughter;fontSource=https%3A%2F%2Ffonts.googleapis.com%2Fcss%3Ffamily%3DArchitects%2BDaughter;fontSize=14;" parent="1" vertex="1">
          <mxGeometry x="261" y="199" width="120" height="40" as="geometry" />
        </mxCell>
        <mxCell id="Vt37HeRaP-ZSJKBTCAe3-6" value="Possui" style="shape=rhombus;perimeter=rhombusPerimeter;align=center;hachureGap=4;fontFamily=Architects Daughter;fontSource=https%3A%2F%2Ffonts.googleapis.com%2Fcss%3Ffamily%3DArchitects%2BDaughter;fontSize=14;whiteSpace=wrap;html=1;spacing=2;" parent="1" vertex="1">
          <mxGeometry x="141" y="320" width="80" height="40" as="geometry" />
        </mxCell>
        <mxCell id="Vt37HeRaP-ZSJKBTCAe3-7" value="Apostilamento" style="shape=ext;margin=3;double=1;whiteSpace=wrap;html=1;align=center;fontFamily=Architects Daughter;fontSource=https%3A%2F%2Ffonts.googleapis.com%2Fcss%3Ffamily%3DArchitects%2BDaughter;fontSize=14;" parent="1" vertex="1">
          <mxGeometry x="121" y="240" width="120" height="40" as="geometry" />
        </mxCell>
        <mxCell id="t7u9MMgzfcloO9yACcXT-14" value="Pessoas" style="whiteSpace=wrap;html=1;align=center;hachureGap=4;fontFamily=Architects Daughter;fontSource=https%3A%2F%2Ffonts.googleapis.com%2Fcss%3Ffamily%3DArchitects%2BDaughter;fontSize=14;" parent="1" vertex="1">
          <mxGeometry x="81" y="440" width="120" height="40" as="geometry" />
        </mxCell>
        <mxCell id="JigoL2MUty575V7aY3mR-3" value="Possui" style="shape=rhombus;perimeter=rhombusPerimeter;align=center;hachureGap=4;fontFamily=Architects Daughter;fontSource=https%3A%2F%2Ffonts.googleapis.com%2Fcss%3Ffamily%3DArchitects%2BDaughter;fontSize=14;whiteSpace=wrap;html=1;spacing=2;" parent="1" vertex="1">
          <mxGeometry x="581" y="259.5" width="80" height="40" as="geometry" />
        </mxCell>
        <mxCell id="JigoL2MUty575V7aY3mR-18" value="Possui" style="shape=rhombus;perimeter=rhombusPerimeter;align=center;hachureGap=4;fontFamily=Architects Daughter;fontSource=https%3A%2F%2Ffonts.googleapis.com%2Fcss%3Ffamily%3DArchitects%2BDaughter;fontSize=14;whiteSpace=wrap;html=1;spacing=2;" parent="1" vertex="1">
          <mxGeometry x="641" y="321" width="80" height="38" as="geometry" />
        </mxCell>
        <mxCell id="S2Lt47LwQYbyGK_pYFCS-1" value="Possui" style="shape=rhombus;perimeter=rhombusPerimeter;align=center;hachureGap=4;fontFamily=Architects Daughter;fontSource=https%3A%2F%2Ffonts.googleapis.com%2Fcss%3Ffamily%3DArchitects%2BDaughter;fontSize=14;whiteSpace=wrap;html=1;spacing=2;" parent="1" vertex="1">
          <mxGeometry x="581" y="379.32" width="80" height="40" as="geometry" />
        </mxCell>
        <mxCell id="S2Lt47LwQYbyGK_pYFCS-4" value="Edital" style="shape=ext;margin=3;double=1;whiteSpace=wrap;html=1;align=center;fontFamily=Architects Daughter;fontSource=https%3A%2F%2Ffonts.googleapis.com%2Fcss%3Ffamily%3DArchitects%2BDaughter;fontSize=14;" parent="1" vertex="1">
          <mxGeometry x="561" y="198.5" width="120" height="40" as="geometry" />
        </mxCell>
        <mxCell id="S2Lt47LwQYbyGK_pYFCS-7" value="Pagamento" style="shape=ext;margin=3;double=1;whiteSpace=wrap;html=1;align=center;fontFamily=Architects Daughter;fontSource=https%3A%2F%2Ffonts.googleapis.com%2Fcss%3Ffamily%3DArchitects%2BDaughter;fontSize=14;" parent="1" vertex="1">
          <mxGeometry x="761" y="320" width="120" height="40" as="geometry" />
        </mxCell>
        <mxCell id="S2Lt47LwQYbyGK_pYFCS-8" value="Despesa" style="shape=ext;margin=3;double=1;whiteSpace=wrap;html=1;align=center;fontFamily=Architects Daughter;fontSource=https%3A%2F%2Ffonts.googleapis.com%2Fcss%3Ffamily%3DArchitects%2BDaughter;fontSize=16;" parent="1" vertex="1">
          <mxGeometry x="560" y="440" width="120" height="40" as="geometry" />
        </mxCell>
        <mxCell id="S2Lt47LwQYbyGK_pYFCS-9" value="PagamentoTipo" style="shape=ext;margin=3;double=1;whiteSpace=wrap;html=1;align=center;fontFamily=Architects Daughter;fontSource=https%3A%2F%2Ffonts.googleapis.com%2Fcss%3Ffamily%3DArchitects%2BDaughter;fontSize=14;" parent="1" vertex="1">
          <mxGeometry x="761" y="199" width="120" height="40" as="geometry" />
        </mxCell>
        <mxCell id="8CYBEvSogMXuopL1VPrF-2" value="Possui" style="shape=rhombus;perimeter=rhombusPerimeter;align=center;hachureGap=4;fontFamily=Architects Daughter;fontSource=https%3A%2F%2Ffonts.googleapis.com%2Fcss%3Ffamily%3DArchitects%2BDaughter;fontSize=14;whiteSpace=wrap;html=1;spacing=2;" parent="1" vertex="1">
          <mxGeometry x="781" y="260.5" width="80" height="38" as="geometry" />
        </mxCell>
        <mxCell id="8CYBEvSogMXuopL1VPrF-9" value="" style="endArrow=none;startArrow=none;endFill=0;startFill=0;endSize=8;html=1;verticalAlign=bottom;labelBackgroundColor=none;strokeWidth=1;rounded=0;" parent="1" edge="1">
          <mxGeometry width="160" relative="1" as="geometry">
            <mxPoint x="489.96000000000004" y="189" as="sourcePoint" />
            <mxPoint x="499.96000000000004" y="189" as="targetPoint" />
          </mxGeometry>
        </mxCell>
        <mxCell id="8CYBEvSogMXuopL1VPrF-14" value="" style="endArrow=none;startArrow=none;endFill=0;startFill=0;endSize=8;html=1;verticalAlign=bottom;labelBackgroundColor=none;strokeWidth=1;rounded=0;exitX=0.75;exitY=0;exitDx=0;exitDy=0;" parent="1" edge="1">
          <mxGeometry width="160" relative="1" as="geometry">
            <mxPoint x="500" y="320" as="sourcePoint" />
            <mxPoint x="488.94000000000005" y="159" as="targetPoint" />
            <Array as="points">
              <mxPoint x="500" y="159" />
            </Array>
          </mxGeometry>
        </mxCell>
        <mxCell id="8CYBEvSogMXuopL1VPrF-16" value="" style="ellipse;" parent="1" vertex="1">
          <mxGeometry x="479.96000000000004" y="244" width="10" height="10" as="geometry" />
        </mxCell>
        <mxCell id="8CYBEvSogMXuopL1VPrF-18" value="" style="endArrow=none;startArrow=none;endFill=0;startFill=0;endSize=8;html=1;verticalAlign=bottom;labelBackgroundColor=none;strokeWidth=1;rounded=0;" parent="1" edge="1">
          <mxGeometry width="160" relative="1" as="geometry">
            <mxPoint x="489.94000000000005" y="203.86" as="sourcePoint" />
            <mxPoint x="499.94000000000005" y="203.86" as="targetPoint" />
          </mxGeometry>
        </mxCell>
        <mxCell id="8CYBEvSogMXuopL1VPrF-19" value="" style="endArrow=none;startArrow=none;endFill=0;startFill=0;endSize=8;html=1;verticalAlign=bottom;labelBackgroundColor=none;strokeWidth=1;rounded=0;" parent="1" edge="1">
          <mxGeometry width="160" relative="1" as="geometry">
            <mxPoint x="489.94000000000005" y="218.86" as="sourcePoint" />
            <mxPoint x="499.94000000000005" y="218.86" as="targetPoint" />
          </mxGeometry>
        </mxCell>
        <mxCell id="8CYBEvSogMXuopL1VPrF-20" value="" style="endArrow=none;startArrow=none;endFill=0;startFill=0;endSize=8;html=1;verticalAlign=bottom;labelBackgroundColor=none;strokeWidth=1;rounded=0;" parent="1" edge="1">
          <mxGeometry width="160" relative="1" as="geometry">
            <mxPoint x="489.94000000000005" y="233.86" as="sourcePoint" />
            <mxPoint x="499.94000000000005" y="233.86" as="targetPoint" />
          </mxGeometry>
        </mxCell>
        <mxCell id="8CYBEvSogMXuopL1VPrF-28" value="" style="endArrow=none;startArrow=none;endFill=0;startFill=0;endSize=8;html=1;verticalAlign=bottom;labelBackgroundColor=none;strokeWidth=1;rounded=0;" parent="1" edge="1">
          <mxGeometry width="160" relative="1" as="geometry">
            <mxPoint x="489.94000000000005" y="173.86" as="sourcePoint" />
            <mxPoint x="499.94000000000005" y="173.86" as="targetPoint" />
          </mxGeometry>
        </mxCell>
        <mxCell id="SWRegFOybNLBxQm6oPg2-1" value="PK_Numero" style="text;align=right;verticalAlign=middle;spacingLeft=0;spacingRight=0;overflow=hidden;rotatable=0;points=[[0,0.5],[1,0.5]];portConstraint=eastwest;rounded=1;shadow=0;html=0;labelBackgroundColor=none;fontColor=#46495D;fontSize=6;fontFamily=Verdana;spacing=0;" parent="1" vertex="1">
          <mxGeometry x="601" y="134" width="37" height="12" as="geometry" />
        </mxCell>
        <mxCell id="SWRegFOybNLBxQm6oPg2-2" value="LinkPublico" style="text;align=right;verticalAlign=middle;spacingLeft=0;spacingRight=0;overflow=hidden;rotatable=0;points=[[0,0.5],[1,0.5]];portConstraint=eastwest;rounded=1;shadow=0;html=0;labelBackgroundColor=none;fontColor=#46495D;fontSize=6;fontFamily=Verdana;spacing=0;" parent="1" vertex="1">
          <mxGeometry x="601" y="150" width="37" height="10" as="geometry" />
        </mxCell>
        <mxCell id="SWRegFOybNLBxQm6oPg2-3" value="DataPublicacao" style="text;align=right;verticalAlign=middle;spacingLeft=0;spacingRight=0;overflow=hidden;rotatable=0;points=[[0,0.5],[1,0.5]];portConstraint=eastwest;rounded=1;shadow=0;html=0;labelBackgroundColor=none;fontColor=#46495D;fontSize=6;fontFamily=Verdana;spacing=0;" parent="1" vertex="1">
          <mxGeometry x="591" y="165" width="47" height="10" as="geometry" />
        </mxCell>
        <mxCell id="SWRegFOybNLBxQm6oPg2-4" value="FK_Extrato (Contrato)" style="text;align=right;verticalAlign=middle;spacingLeft=0;spacingRight=0;overflow=hidden;rotatable=0;points=[[0,0.5],[1,0.5]];portConstraint=eastwest;rounded=1;shadow=0;html=0;labelBackgroundColor=none;fontColor=#46495D;fontSize=6;fontFamily=Verdana;spacing=0;" parent="1" vertex="1">
          <mxGeometry x="571" y="180" width="67" height="10" as="geometry" />
        </mxCell>
        <mxCell id="SWRegFOybNLBxQm6oPg2-7" value="" style="ellipse;fillColor=strokeColor;html=1;" parent="1" vertex="1">
          <mxGeometry x="641" y="135" width="10" height="10" as="geometry" />
        </mxCell>
        <mxCell id="SWRegFOybNLBxQm6oPg2-8" value="" style="ellipse;" parent="1" vertex="1">
          <mxGeometry x="641" y="150" width="10" height="10" as="geometry" />
        </mxCell>
        <mxCell id="SWRegFOybNLBxQm6oPg2-9" value="" style="ellipse;" parent="1" vertex="1">
          <mxGeometry x="641" y="165" width="10" height="10" as="geometry" />
        </mxCell>
        <mxCell id="SWRegFOybNLBxQm6oPg2-10" value="" style="ellipse;" parent="1" vertex="1">
          <mxGeometry x="641" y="180" width="10" height="10" as="geometry" />
        </mxCell>
        <mxCell id="SWRegFOybNLBxQm6oPg2-11" value="" style="endArrow=none;startArrow=none;endFill=0;startFill=0;endSize=8;html=1;verticalAlign=bottom;labelBackgroundColor=none;strokeWidth=1;rounded=0;" parent="1" edge="1">
          <mxGeometry width="160" relative="1" as="geometry">
            <mxPoint x="651" y="170" as="sourcePoint" />
            <mxPoint x="661" y="170" as="targetPoint" />
          </mxGeometry>
        </mxCell>
        <mxCell id="SWRegFOybNLBxQm6oPg2-12" value="" style="endArrow=none;startArrow=none;endFill=0;startFill=0;endSize=8;html=1;verticalAlign=bottom;labelBackgroundColor=none;strokeWidth=1;rounded=0;" parent="1" edge="1">
          <mxGeometry width="160" relative="1" as="geometry">
            <mxPoint x="651" y="184.86" as="sourcePoint" />
            <mxPoint x="661" y="184.86" as="targetPoint" />
          </mxGeometry>
        </mxCell>
        <mxCell id="SWRegFOybNLBxQm6oPg2-13" value="" style="endArrow=none;startArrow=none;endFill=0;startFill=0;endSize=8;html=1;verticalAlign=bottom;labelBackgroundColor=none;strokeWidth=1;rounded=0;" parent="1" edge="1">
          <mxGeometry width="160" relative="1" as="geometry">
            <mxPoint x="651" y="154.9" as="sourcePoint" />
            <mxPoint x="661" y="154.9" as="targetPoint" />
          </mxGeometry>
        </mxCell>
        <mxCell id="SWRegFOybNLBxQm6oPg2-14" value="" style="endArrow=none;startArrow=none;endFill=0;startFill=0;endSize=8;html=1;verticalAlign=bottom;labelBackgroundColor=none;strokeWidth=1;rounded=0;" parent="1" edge="1">
          <mxGeometry width="160" relative="1" as="geometry">
            <mxPoint x="661" y="198.5" as="sourcePoint" />
            <mxPoint x="651" y="139.5" as="targetPoint" />
            <Array as="points">
              <mxPoint x="661" y="139.5" />
            </Array>
          </mxGeometry>
        </mxCell>
        <mxCell id="s_9o1KUbOPqTCdPuqAkv-1" value="&lt;font face=&quot;Architects Daughter&quot;&gt;Resolucao&lt;/font&gt;" style="shape=associativeEntity;whiteSpace=wrap;html=1;align=center;fontSize=14;" parent="1" vertex="1">
          <mxGeometry x="241" y="440" width="120" height="40" as="geometry" />
        </mxCell>
        <mxCell id="s_9o1KUbOPqTCdPuqAkv-3" value="Portaria" style="whiteSpace=wrap;html=1;align=center;hachureGap=4;fontFamily=Architects Daughter;fontSource=https%3A%2F%2Ffonts.googleapis.com%2Fcss%3Ffamily%3DArchitects%2BDaughter;fontSize=14;" parent="1" vertex="1">
          <mxGeometry x="400" y="440" width="120" height="40" as="geometry" />
        </mxCell>
        <mxCell id="o78Wbt8Fe9NXopKCtGlK-1" value="Possui" style="shape=rhombus;perimeter=rhombusPerimeter;align=center;hachureGap=4;fontFamily=Architects Daughter;fontSource=https%3A%2F%2Ffonts.googleapis.com%2Fcss%3Ffamily%3DArchitects%2BDaughter;fontSize=14;whiteSpace=wrap;html=1;spacing=2;" parent="1" vertex="1">
          <mxGeometry x="423" y="379.32" width="80" height="40" as="geometry" />
        </mxCell>
        <mxCell id="jZ8FrHe3cEYNgn65Ejmr-12" value="PK_Numero" style="text;align=right;verticalAlign=middle;spacingLeft=0;spacingRight=0;overflow=hidden;rotatable=0;points=[[0,0.5],[1,0.5]];portConstraint=eastwest;rounded=1;shadow=0;html=0;fontSize=6;fontFamily=Verdana;spacing=0;" parent="1" vertex="1">
          <mxGeometry x="301" y="105" width="38" height="10" as="geometry" />
        </mxCell>
        <mxCell id="jZ8FrHe3cEYNgn65Ejmr-13" value="Descricao" style="text;align=right;verticalAlign=middle;spacingLeft=0;spacingRight=0;overflow=hidden;rotatable=0;points=[[0,0.5],[1,0.5]];portConstraint=eastwest;rounded=1;shadow=0;html=0;fontSize=6;fontFamily=Verdana;spacing=0;" parent="1" vertex="1">
          <mxGeometry x="301" y="118" width="38" height="10" as="geometry" />
        </mxCell>
        <mxCell id="jZ8FrHe3cEYNgn65Ejmr-14" value="DataInicio" style="text;align=right;verticalAlign=middle;spacingLeft=0;spacingRight=0;overflow=hidden;rotatable=0;points=[[0,0.5],[1,0.5]];portConstraint=eastwest;rounded=1;fontSize=6;spacing=0;fontFamily=Verdana;" parent="1" vertex="1">
          <mxGeometry x="291" y="133" width="48" height="10" as="geometry" />
        </mxCell>
        <mxCell id="jZ8FrHe3cEYNgn65Ejmr-15" value="DataFim" style="text;align=right;verticalAlign=middle;spacingLeft=0;spacingRight=0;overflow=hidden;rotatable=0;points=[[0,0.5],[1,0.5]];portConstraint=eastwest;rounded=1;fontSize=6;spacing=0;fontFamily=Verdana;" parent="1" vertex="1">
          <mxGeometry x="301" y="148" width="38" height="10" as="geometry" />
        </mxCell>
        <mxCell id="jZ8FrHe3cEYNgn65Ejmr-16" value="Valor" style="text;align=right;verticalAlign=middle;spacingLeft=0;spacingRight=0;overflow=hidden;rotatable=0;points=[[0,0.5],[1,0.5]];portConstraint=eastwest;rounded=1;shadow=0;html=0;fontSize=6;spacing=0;fontFamily=Verdana;" parent="1" vertex="1">
          <mxGeometry x="301" y="163" width="38" height="10" as="geometry" />
        </mxCell>
        <mxCell id="jZ8FrHe3cEYNgn65Ejmr-17" value="FK_Extrato" style="text;align=right;verticalAlign=middle;spacingLeft=0;spacingRight=0;overflow=hidden;rotatable=0;points=[[0,0.5],[1,0.5]];portConstraint=eastwest;rounded=1;shadow=0;html=0;fontSize=6;spacing=0;fontFamily=Verdana;" parent="1" vertex="1">
          <mxGeometry x="301" y="178" width="38" height="10" as="geometry" />
        </mxCell>
        <mxCell id="jZ8FrHe3cEYNgn65Ejmr-18" value="" style="ellipse;fillColor=strokeColor;html=1;" parent="1" vertex="1">
          <mxGeometry x="341" y="103" width="10" height="10" as="geometry" />
        </mxCell>
        <mxCell id="jZ8FrHe3cEYNgn65Ejmr-19" value="" style="ellipse;" parent="1" vertex="1">
          <mxGeometry x="341" y="118" width="10" height="10" as="geometry" />
        </mxCell>
        <mxCell id="jZ8FrHe3cEYNgn65Ejmr-20" value="" style="ellipse;" parent="1" vertex="1">
          <mxGeometry x="341" y="133" width="10" height="10" as="geometry" />
        </mxCell>
        <mxCell id="jZ8FrHe3cEYNgn65Ejmr-21" value="" style="ellipse;" parent="1" vertex="1">
          <mxGeometry x="341" y="148" width="10" height="10" as="geometry" />
        </mxCell>
        <mxCell id="jZ8FrHe3cEYNgn65Ejmr-22" value="" style="ellipse;" parent="1" vertex="1">
          <mxGeometry x="341" y="163" width="10" height="10" as="geometry" />
        </mxCell>
        <mxCell id="jZ8FrHe3cEYNgn65Ejmr-23" value="" style="ellipse;" parent="1" vertex="1">
          <mxGeometry x="341" y="178" width="10" height="10" as="geometry" />
        </mxCell>
        <mxCell id="jZ8FrHe3cEYNgn65Ejmr-24" value="" style="endArrow=none;startArrow=none;endFill=0;startFill=0;endSize=8;html=1;verticalAlign=bottom;labelBackgroundColor=none;strokeWidth=1;rounded=0;" parent="1" edge="1">
          <mxGeometry width="160" relative="1" as="geometry">
            <mxPoint x="351" y="138" as="sourcePoint" />
            <mxPoint x="361" y="138" as="targetPoint" />
          </mxGeometry>
        </mxCell>
        <mxCell id="jZ8FrHe3cEYNgn65Ejmr-25" value="" style="endArrow=none;startArrow=none;endFill=0;startFill=0;endSize=8;html=1;verticalAlign=bottom;labelBackgroundColor=none;strokeWidth=1;rounded=0;exitX=0.417;exitY=0;exitDx=0;exitDy=0;exitPerimeter=0;" parent="1" edge="1">
          <mxGeometry width="160" relative="1" as="geometry">
            <mxPoint x="361" y="199" as="sourcePoint" />
            <mxPoint x="351" y="108" as="targetPoint" />
            <Array as="points">
              <mxPoint x="361" y="108" />
            </Array>
          </mxGeometry>
        </mxCell>
        <mxCell id="jZ8FrHe3cEYNgn65Ejmr-26" value="" style="endArrow=none;startArrow=none;endFill=0;startFill=0;endSize=8;html=1;verticalAlign=bottom;labelBackgroundColor=none;strokeWidth=1;rounded=0;" parent="1" edge="1">
          <mxGeometry width="160" relative="1" as="geometry">
            <mxPoint x="351" y="152.86" as="sourcePoint" />
            <mxPoint x="361" y="152.86" as="targetPoint" />
          </mxGeometry>
        </mxCell>
        <mxCell id="jZ8FrHe3cEYNgn65Ejmr-27" value="" style="endArrow=none;startArrow=none;endFill=0;startFill=0;endSize=8;html=1;verticalAlign=bottom;labelBackgroundColor=none;strokeWidth=1;rounded=0;" parent="1" edge="1">
          <mxGeometry width="160" relative="1" as="geometry">
            <mxPoint x="351" y="167.86" as="sourcePoint" />
            <mxPoint x="361" y="167.86" as="targetPoint" />
          </mxGeometry>
        </mxCell>
        <mxCell id="jZ8FrHe3cEYNgn65Ejmr-28" value="" style="endArrow=none;startArrow=none;endFill=0;startFill=0;endSize=8;html=1;verticalAlign=bottom;labelBackgroundColor=none;strokeWidth=1;rounded=0;" parent="1" edge="1">
          <mxGeometry width="160" relative="1" as="geometry">
            <mxPoint x="351" y="182.86" as="sourcePoint" />
            <mxPoint x="361" y="182.86" as="targetPoint" />
          </mxGeometry>
        </mxCell>
        <mxCell id="jZ8FrHe3cEYNgn65Ejmr-29" value="" style="endArrow=none;startArrow=none;endFill=0;startFill=0;endSize=8;html=1;verticalAlign=bottom;labelBackgroundColor=none;strokeWidth=1;rounded=0;" parent="1" edge="1">
          <mxGeometry width="160" relative="1" as="geometry">
            <mxPoint x="351" y="122.9" as="sourcePoint" />
            <mxPoint x="361" y="122.9" as="targetPoint" />
          </mxGeometry>
        </mxCell>
        <mxCell id="jZ8FrHe3cEYNgn65Ejmr-30" value="PK_NotaEmpenho" style="text;align=right;verticalAlign=middle;spacingLeft=0;spacingRight=0;overflow=hidden;rotatable=0;points=[[0,0.5],[1,0.5]];portConstraint=eastwest;rounded=1;shadow=0;html=0;fontSize=6;fontFamily=Verdana;spacing=0;" parent="1" vertex="1">
          <mxGeometry x="781" y="125" width="58" height="10" as="geometry" />
        </mxCell>
        <mxCell id="jZ8FrHe3cEYNgn65Ejmr-31" value="Modalidade" style="text;align=right;verticalAlign=middle;spacingLeft=0;spacingRight=0;overflow=hidden;rotatable=0;points=[[0,0.5],[1,0.5]];portConstraint=eastwest;rounded=1;shadow=0;html=0;fontSize=6;fontFamily=Verdana;spacing=0;" parent="1" vertex="1">
          <mxGeometry x="801" y="138" width="38" height="10" as="geometry" />
        </mxCell>
        <mxCell id="jZ8FrHe3cEYNgn65Ejmr-32" value="DataCadastro" style="text;align=right;verticalAlign=middle;spacingLeft=0;spacingRight=0;overflow=hidden;rotatable=0;points=[[0,0.5],[1,0.5]];portConstraint=eastwest;rounded=1;fontSize=6;spacing=0;fontFamily=Verdana;" parent="1" vertex="1">
          <mxGeometry x="791" y="153" width="48" height="10" as="geometry" />
        </mxCell>
        <mxCell id="jZ8FrHe3cEYNgn65Ejmr-34" value="FK_NotaLancamento" style="text;align=right;verticalAlign=middle;spacingLeft=0;spacingRight=0;overflow=hidden;rotatable=0;points=[[0,0.5],[1,0.5]];portConstraint=eastwest;rounded=1;shadow=0;html=0;fontSize=6;spacing=0;fontFamily=Verdana;" parent="1" vertex="1">
          <mxGeometry x="771" y="169" width="68" height="10" as="geometry" />
        </mxCell>
        <mxCell id="jZ8FrHe3cEYNgn65Ejmr-35" value="FK_Extrato" style="text;align=right;verticalAlign=middle;spacingLeft=0;spacingRight=0;overflow=hidden;rotatable=0;points=[[0,0.5],[1,0.5]];portConstraint=eastwest;rounded=1;shadow=0;html=0;fontSize=6;spacing=0;fontFamily=Verdana;" parent="1" vertex="1">
          <mxGeometry x="801" y="183" width="38" height="10" as="geometry" />
        </mxCell>
        <mxCell id="jZ8FrHe3cEYNgn65Ejmr-36" value="" style="ellipse;fillColor=strokeColor;html=1;" parent="1" vertex="1">
          <mxGeometry x="841" y="123" width="10" height="10" as="geometry" />
        </mxCell>
        <mxCell id="jZ8FrHe3cEYNgn65Ejmr-37" value="" style="ellipse;" parent="1" vertex="1">
          <mxGeometry x="841" y="138" width="10" height="10" as="geometry" />
        </mxCell>
        <mxCell id="jZ8FrHe3cEYNgn65Ejmr-38" value="" style="ellipse;" parent="1" vertex="1">
          <mxGeometry x="841" y="153" width="10" height="10" as="geometry" />
        </mxCell>
        <mxCell id="jZ8FrHe3cEYNgn65Ejmr-39" value="" style="ellipse;" parent="1" vertex="1">
          <mxGeometry x="841" y="168" width="10" height="10" as="geometry" />
        </mxCell>
        <mxCell id="jZ8FrHe3cEYNgn65Ejmr-40" value="" style="ellipse;" parent="1" vertex="1">
          <mxGeometry x="841" y="183" width="10" height="10" as="geometry" />
        </mxCell>
        <mxCell id="jZ8FrHe3cEYNgn65Ejmr-42" value="" style="endArrow=none;startArrow=none;endFill=0;startFill=0;endSize=8;html=1;verticalAlign=bottom;labelBackgroundColor=none;strokeWidth=1;rounded=0;" parent="1" edge="1">
          <mxGeometry width="160" relative="1" as="geometry">
            <mxPoint x="851" y="158" as="sourcePoint" />
            <mxPoint x="861" y="158" as="targetPoint" />
          </mxGeometry>
        </mxCell>
        <mxCell id="jZ8FrHe3cEYNgn65Ejmr-43" value="" style="endArrow=none;startArrow=none;endFill=0;startFill=0;endSize=8;html=1;verticalAlign=bottom;labelBackgroundColor=none;strokeWidth=1;rounded=0;" parent="1" edge="1">
          <mxGeometry width="160" relative="1" as="geometry">
            <mxPoint x="861" y="199" as="sourcePoint" />
            <mxPoint x="851" y="128" as="targetPoint" />
            <Array as="points">
              <mxPoint x="861" y="128" />
            </Array>
          </mxGeometry>
        </mxCell>
        <mxCell id="jZ8FrHe3cEYNgn65Ejmr-44" value="" style="endArrow=none;startArrow=none;endFill=0;startFill=0;endSize=8;html=1;verticalAlign=bottom;labelBackgroundColor=none;strokeWidth=1;rounded=0;" parent="1" edge="1">
          <mxGeometry width="160" relative="1" as="geometry">
            <mxPoint x="851" y="172.86" as="sourcePoint" />
            <mxPoint x="861" y="172.86" as="targetPoint" />
          </mxGeometry>
        </mxCell>
        <mxCell id="jZ8FrHe3cEYNgn65Ejmr-45" value="" style="endArrow=none;startArrow=none;endFill=0;startFill=0;endSize=8;html=1;verticalAlign=bottom;labelBackgroundColor=none;strokeWidth=1;rounded=0;" parent="1" edge="1">
          <mxGeometry width="160" relative="1" as="geometry">
            <mxPoint x="851" y="187.86" as="sourcePoint" />
            <mxPoint x="861" y="187.86" as="targetPoint" />
          </mxGeometry>
        </mxCell>
        <mxCell id="jZ8FrHe3cEYNgn65Ejmr-47" value="" style="endArrow=none;startArrow=none;endFill=0;startFill=0;endSize=8;html=1;verticalAlign=bottom;labelBackgroundColor=none;strokeWidth=1;rounded=0;" parent="1" edge="1">
          <mxGeometry width="160" relative="1" as="geometry">
            <mxPoint x="851" y="142.9" as="sourcePoint" />
            <mxPoint x="861" y="142.9" as="targetPoint" />
          </mxGeometry>
        </mxCell>
        <mxCell id="jZ8FrHe3cEYNgn65Ejmr-48" value="PK_NotaLancamento" style="text;align=left;verticalAlign=middle;spacingLeft=0;spacingRight=0;overflow=hidden;rotatable=0;points=[[0,0.5],[1,0.5]];portConstraint=eastwest;rounded=1;shadow=0;html=0;fontSize=6;fontFamily=Verdana;spacing=0;" parent="1" vertex="1">
          <mxGeometry x="802" y="367.32" width="70" height="10" as="geometry" />
        </mxCell>
        <mxCell id="jZ8FrHe3cEYNgn65Ejmr-49" value="PreparacaoPagamento" style="text;align=left;verticalAlign=middle;spacingLeft=0;spacingRight=0;overflow=hidden;rotatable=0;points=[[0,0.5],[1,0.5]];portConstraint=eastwest;rounded=1;shadow=0;html=0;fontSize=6;fontFamily=Verdana;spacing=0;" parent="1" vertex="1">
          <mxGeometry x="802" y="382.32" width="70" height="10" as="geometry" />
        </mxCell>
        <mxCell id="jZ8FrHe3cEYNgn65Ejmr-50" value="OrdemBancaria" style="text;align=left;verticalAlign=middle;spacingLeft=0;spacingRight=0;overflow=hidden;rotatable=0;points=[[0,0.5],[1,0.5]];portConstraint=eastwest;rounded=1;fontSize=6;spacing=0;fontFamily=Verdana;" parent="1" vertex="1">
          <mxGeometry x="802" y="397.32" width="48" height="10" as="geometry" />
        </mxCell>
        <mxCell id="jZ8FrHe3cEYNgn65Ejmr-51" value="Valor" style="text;align=left;verticalAlign=middle;spacingLeft=0;spacingRight=0;overflow=hidden;rotatable=0;points=[[0,0.5],[1,0.5]];portConstraint=eastwest;rounded=1;shadow=0;html=0;fontSize=6;spacing=0;fontFamily=Verdana;" parent="1" vertex="1">
          <mxGeometry x="802" y="412.32" width="18" height="10" as="geometry" />
        </mxCell>
        <mxCell id="jZ8FrHe3cEYNgn65Ejmr-52" value="Data" style="text;align=left;verticalAlign=middle;spacingLeft=0;spacingRight=0;overflow=hidden;rotatable=0;points=[[0,0.5],[1,0.5]];portConstraint=eastwest;rounded=1;shadow=0;html=0;fontSize=6;spacing=0;fontFamily=Verdana;" parent="1" vertex="1">
          <mxGeometry x="802" y="427.32" width="30" height="10" as="geometry" />
        </mxCell>
        <mxCell id="jZ8FrHe3cEYNgn65Ejmr-67" value="" style="endArrow=none;startArrow=none;endFill=0;startFill=0;endSize=8;html=1;verticalAlign=bottom;labelBackgroundColor=none;strokeWidth=1;rounded=0;entryX=0;entryY=0.5;entryDx=0;entryDy=0;exitX=0.667;exitY=1.042;exitDx=0;exitDy=0;exitPerimeter=0;" parent="1" edge="1">
          <mxGeometry width="160" relative="1" as="geometry">
            <mxPoint x="780.04" y="360.00000000000006" as="sourcePoint" />
            <mxPoint x="790.0000000000022" y="463.56999999999994" as="targetPoint" />
            <Array as="points">
              <mxPoint x="780" y="463.56999999999994" />
            </Array>
          </mxGeometry>
        </mxCell>
        <mxCell id="jZ8FrHe3cEYNgn65Ejmr-69" value="" style="endArrow=none;startArrow=none;endFill=0;startFill=0;endSize=8;html=1;verticalAlign=bottom;labelBackgroundColor=none;strokeWidth=1;rounded=0;" parent="1" edge="1">
          <mxGeometry width="160" relative="1" as="geometry">
            <mxPoint x="780" y="447.15" as="sourcePoint" />
            <mxPoint x="790" y="447.15" as="targetPoint" />
          </mxGeometry>
        </mxCell>
        <mxCell id="jZ8FrHe3cEYNgn65Ejmr-70" value="" style="endArrow=none;startArrow=none;endFill=0;startFill=0;endSize=8;html=1;verticalAlign=bottom;labelBackgroundColor=none;strokeWidth=1;rounded=0;" parent="1" edge="1">
          <mxGeometry width="160" relative="1" as="geometry">
            <mxPoint x="780" y="432.15" as="sourcePoint" />
            <mxPoint x="790" y="432.15" as="targetPoint" />
          </mxGeometry>
        </mxCell>
        <mxCell id="jZ8FrHe3cEYNgn65Ejmr-71" value="" style="endArrow=none;startArrow=none;endFill=0;startFill=0;endSize=8;html=1;verticalAlign=bottom;labelBackgroundColor=none;strokeWidth=1;rounded=0;" parent="1" edge="1">
          <mxGeometry width="160" relative="1" as="geometry">
            <mxPoint x="780" y="417.15" as="sourcePoint" />
            <mxPoint x="790" y="417.15" as="targetPoint" />
          </mxGeometry>
        </mxCell>
        <mxCell id="jZ8FrHe3cEYNgn65Ejmr-72" value="" style="endArrow=none;startArrow=none;endFill=0;startFill=0;endSize=8;html=1;verticalAlign=bottom;labelBackgroundColor=none;strokeWidth=1;rounded=0;" parent="1" edge="1">
          <mxGeometry width="160" relative="1" as="geometry">
            <mxPoint x="780" y="402.15" as="sourcePoint" />
            <mxPoint x="790" y="402.15" as="targetPoint" />
          </mxGeometry>
        </mxCell>
        <mxCell id="jZ8FrHe3cEYNgn65Ejmr-75" value="FK_Extrato" style="text;align=left;verticalAlign=middle;spacingLeft=0;spacingRight=0;overflow=hidden;rotatable=0;points=[[0,0.5],[1,0.5]];portConstraint=eastwest;rounded=1;shadow=0;html=0;fontSize=6;spacing=0;fontFamily=Verdana;" parent="1" vertex="1">
          <mxGeometry x="802" y="457.31999999999994" width="38" height="10" as="geometry" />
        </mxCell>
        <mxCell id="jZ8FrHe3cEYNgn65Ejmr-76" value="Parcela" style="text;align=left;verticalAlign=middle;spacingLeft=0;spacingRight=0;overflow=hidden;rotatable=0;points=[[0,0.5],[1,0.5]];portConstraint=eastwest;rounded=1;shadow=0;html=0;fontSize=6;spacing=0;fontFamily=Verdana;" parent="1" vertex="1">
          <mxGeometry x="802" y="442.32" width="30" height="10" as="geometry" />
        </mxCell>
        <mxCell id="jZ8FrHe3cEYNgn65Ejmr-80" value="" style="ellipse;fillColor=strokeColor;html=1;" parent="1" vertex="1">
          <mxGeometry x="790" y="367.32" width="10" height="10" as="geometry" />
        </mxCell>
        <mxCell id="jZ8FrHe3cEYNgn65Ejmr-81" value="" style="ellipse;" parent="1" vertex="1">
          <mxGeometry x="790" y="382.32" width="10" height="10" as="geometry" />
        </mxCell>
        <mxCell id="jZ8FrHe3cEYNgn65Ejmr-82" value="" style="ellipse;" parent="1" vertex="1">
          <mxGeometry x="790" y="397.32" width="10" height="10" as="geometry" />
        </mxCell>
        <mxCell id="jZ8FrHe3cEYNgn65Ejmr-83" value="" style="ellipse;" parent="1" vertex="1">
          <mxGeometry x="790" y="412.32" width="10" height="10" as="geometry" />
        </mxCell>
        <mxCell id="jZ8FrHe3cEYNgn65Ejmr-84" value="" style="ellipse;" parent="1" vertex="1">
          <mxGeometry x="790" y="427.32" width="10" height="10" as="geometry" />
        </mxCell>
        <mxCell id="jZ8FrHe3cEYNgn65Ejmr-85" value="" style="ellipse;" parent="1" vertex="1">
          <mxGeometry x="790" y="442.32" width="10" height="10" as="geometry" />
        </mxCell>
        <mxCell id="jZ8FrHe3cEYNgn65Ejmr-86" value="" style="ellipse;" parent="1" vertex="1">
          <mxGeometry x="790" y="457.31999999999994" width="10" height="10" as="geometry" />
        </mxCell>
        <mxCell id="jZ8FrHe3cEYNgn65Ejmr-87" value="" style="endArrow=none;startArrow=none;endFill=0;startFill=0;endSize=8;html=1;verticalAlign=bottom;labelBackgroundColor=none;strokeWidth=1;rounded=0;" parent="1" edge="1">
          <mxGeometry width="160" relative="1" as="geometry">
            <mxPoint x="780" y="387.15" as="sourcePoint" />
            <mxPoint x="790" y="387.15" as="targetPoint" />
          </mxGeometry>
        </mxCell>
        <mxCell id="jZ8FrHe3cEYNgn65Ejmr-91" value="" style="endArrow=none;startArrow=none;endFill=0;startFill=0;endSize=8;html=1;verticalAlign=bottom;labelBackgroundColor=none;strokeWidth=1;rounded=0;" parent="1" edge="1">
          <mxGeometry width="160" relative="1" as="geometry">
            <mxPoint x="780" y="372.15" as="sourcePoint" />
            <mxPoint x="790" y="372.15" as="targetPoint" />
          </mxGeometry>
        </mxCell>
        <mxCell id="jZ8FrHe3cEYNgn65Ejmr-92" value="Codigo" style="text;align=left;verticalAlign=middle;spacingLeft=0;spacingRight=0;overflow=hidden;rotatable=0;points=[[0,0.5],[1,0.5]];portConstraint=eastwest;rounded=1;shadow=0;html=0;fontSize=6;fontFamily=Verdana;spacing=0;" parent="1" vertex="1">
          <mxGeometry x="602" y="489.31999999999994" width="38" height="10" as="geometry" />
        </mxCell>
        <mxCell id="jZ8FrHe3cEYNgn65Ejmr-93" value="Programa" style="text;align=left;verticalAlign=middle;spacingLeft=0;spacingRight=0;overflow=hidden;rotatable=0;points=[[0,0.5],[1,0.5]];portConstraint=eastwest;rounded=1;shadow=0;html=0;fontSize=6;fontFamily=Verdana;spacing=0;" parent="1" vertex="1">
          <mxGeometry x="602" y="504.31999999999994" width="38" height="10" as="geometry" />
        </mxCell>
        <mxCell id="jZ8FrHe3cEYNgn65Ejmr-94" value="Acao" style="text;align=left;verticalAlign=middle;spacingLeft=0;spacingRight=0;overflow=hidden;rotatable=0;points=[[0,0.5],[1,0.5]];portConstraint=eastwest;rounded=1;fontSize=6;spacing=0;fontFamily=Verdana;" parent="1" vertex="1">
          <mxGeometry x="602" y="517.3199999999999" width="48" height="10" as="geometry" />
        </mxCell>
        <mxCell id="jZ8FrHe3cEYNgn65Ejmr-95" value="Fonte" style="text;align=left;verticalAlign=middle;spacingLeft=0;spacingRight=0;overflow=hidden;rotatable=0;points=[[0,0.5],[1,0.5]];portConstraint=eastwest;rounded=1;shadow=0;html=0;fontSize=6;spacing=0;fontFamily=Verdana;" parent="1" vertex="1">
          <mxGeometry x="602" y="534.3199999999999" width="18" height="10" as="geometry" />
        </mxCell>
        <mxCell id="jZ8FrHe3cEYNgn65Ejmr-96" value="Natureza" style="text;align=left;verticalAlign=middle;spacingLeft=0;spacingRight=0;overflow=hidden;rotatable=0;points=[[0,0.5],[1,0.5]];portConstraint=eastwest;rounded=1;shadow=0;html=0;fontSize=6;spacing=0;fontFamily=Verdana;" parent="1" vertex="1">
          <mxGeometry x="602" y="549.3199999999999" width="30" height="10" as="geometry" />
        </mxCell>
        <mxCell id="jZ8FrHe3cEYNgn65Ejmr-97" value="" style="endArrow=none;startArrow=none;endFill=0;startFill=0;endSize=8;html=1;verticalAlign=bottom;labelBackgroundColor=none;strokeWidth=1;rounded=0;entryX=0;entryY=0.5;entryDx=0;entryDy=0;exitX=0.667;exitY=1.042;exitDx=0;exitDy=0;exitPerimeter=0;" parent="1" edge="1">
          <mxGeometry width="160" relative="1" as="geometry">
            <mxPoint x="580.04" y="480" as="sourcePoint" />
            <mxPoint x="590.0000000000022" y="583.5699999999999" as="targetPoint" />
            <Array as="points">
              <mxPoint x="580" y="583.5699999999999" />
            </Array>
          </mxGeometry>
        </mxCell>
        <mxCell id="jZ8FrHe3cEYNgn65Ejmr-98" value="" style="endArrow=none;startArrow=none;endFill=0;startFill=0;endSize=8;html=1;verticalAlign=bottom;labelBackgroundColor=none;strokeWidth=1;rounded=0;" parent="1" edge="1">
          <mxGeometry width="160" relative="1" as="geometry">
            <mxPoint x="580" y="569.15" as="sourcePoint" />
            <mxPoint x="590" y="569.15" as="targetPoint" />
          </mxGeometry>
        </mxCell>
        <mxCell id="jZ8FrHe3cEYNgn65Ejmr-99" value="" style="endArrow=none;startArrow=none;endFill=0;startFill=0;endSize=8;html=1;verticalAlign=bottom;labelBackgroundColor=none;strokeWidth=1;rounded=0;" parent="1" edge="1">
          <mxGeometry width="160" relative="1" as="geometry">
            <mxPoint x="580" y="554.15" as="sourcePoint" />
            <mxPoint x="590" y="554.15" as="targetPoint" />
          </mxGeometry>
        </mxCell>
        <mxCell id="jZ8FrHe3cEYNgn65Ejmr-100" value="" style="endArrow=none;startArrow=none;endFill=0;startFill=0;endSize=8;html=1;verticalAlign=bottom;labelBackgroundColor=none;strokeWidth=1;rounded=0;" parent="1" edge="1">
          <mxGeometry width="160" relative="1" as="geometry">
            <mxPoint x="580" y="539.15" as="sourcePoint" />
            <mxPoint x="590" y="539.15" as="targetPoint" />
          </mxGeometry>
        </mxCell>
        <mxCell id="jZ8FrHe3cEYNgn65Ejmr-101" value="" style="endArrow=none;startArrow=none;endFill=0;startFill=0;endSize=8;html=1;verticalAlign=bottom;labelBackgroundColor=none;strokeWidth=1;rounded=0;" parent="1" edge="1">
          <mxGeometry width="160" relative="1" as="geometry">
            <mxPoint x="580" y="524.15" as="sourcePoint" />
            <mxPoint x="590" y="524.15" as="targetPoint" />
          </mxGeometry>
        </mxCell>
        <mxCell id="jZ8FrHe3cEYNgn65Ejmr-102" value="FK_Extrato" style="text;align=left;verticalAlign=middle;spacingLeft=0;spacingRight=0;overflow=hidden;rotatable=0;points=[[0,0.5],[1,0.5]];portConstraint=eastwest;rounded=1;shadow=0;html=0;fontSize=6;spacing=0;fontFamily=Verdana;" parent="1" vertex="1">
          <mxGeometry x="602" y="579.3199999999999" width="38" height="10" as="geometry" />
        </mxCell>
        <mxCell id="jZ8FrHe3cEYNgn65Ejmr-103" value="Elemento" style="text;align=left;verticalAlign=middle;spacingLeft=0;spacingRight=0;overflow=hidden;rotatable=0;points=[[0,0.5],[1,0.5]];portConstraint=eastwest;rounded=1;shadow=0;html=0;fontSize=6;spacing=0;fontFamily=Verdana;" parent="1" vertex="1">
          <mxGeometry x="603" y="564.3199999999999" width="30" height="10" as="geometry" />
        </mxCell>
        <mxCell id="jZ8FrHe3cEYNgn65Ejmr-104" value="" style="ellipse;fillColor=strokeColor;html=1;" parent="1" vertex="1">
          <mxGeometry x="590" y="489.31999999999994" width="10" height="10" as="geometry" />
        </mxCell>
        <mxCell id="jZ8FrHe3cEYNgn65Ejmr-105" value="" style="ellipse;" parent="1" vertex="1">
          <mxGeometry x="590" y="504.31999999999994" width="10" height="10" as="geometry" />
        </mxCell>
        <mxCell id="jZ8FrHe3cEYNgn65Ejmr-106" value="" style="ellipse;" parent="1" vertex="1">
          <mxGeometry x="590" y="519.3199999999999" width="10" height="10" as="geometry" />
        </mxCell>
        <mxCell id="jZ8FrHe3cEYNgn65Ejmr-107" value="" style="ellipse;" parent="1" vertex="1">
          <mxGeometry x="590" y="534.3199999999999" width="10" height="10" as="geometry" />
        </mxCell>
        <mxCell id="jZ8FrHe3cEYNgn65Ejmr-108" value="" style="ellipse;" parent="1" vertex="1">
          <mxGeometry x="590" y="549.3199999999999" width="10" height="10" as="geometry" />
        </mxCell>
        <mxCell id="jZ8FrHe3cEYNgn65Ejmr-109" value="" style="ellipse;" parent="1" vertex="1">
          <mxGeometry x="590" y="564.3199999999999" width="10" height="10" as="geometry" />
        </mxCell>
        <mxCell id="jZ8FrHe3cEYNgn65Ejmr-110" value="" style="ellipse;" parent="1" vertex="1">
          <mxGeometry x="590" y="579.3199999999999" width="10" height="10" as="geometry" />
        </mxCell>
        <mxCell id="jZ8FrHe3cEYNgn65Ejmr-111" value="" style="endArrow=none;startArrow=none;endFill=0;startFill=0;endSize=8;html=1;verticalAlign=bottom;labelBackgroundColor=none;strokeWidth=1;rounded=0;" parent="1" edge="1">
          <mxGeometry width="160" relative="1" as="geometry">
            <mxPoint x="580" y="509.15" as="sourcePoint" />
            <mxPoint x="590" y="509.15" as="targetPoint" />
          </mxGeometry>
        </mxCell>
        <mxCell id="jZ8FrHe3cEYNgn65Ejmr-112" value="" style="endArrow=none;startArrow=none;endFill=0;startFill=0;endSize=8;html=1;verticalAlign=bottom;labelBackgroundColor=none;strokeWidth=1;rounded=0;" parent="1" edge="1">
          <mxGeometry width="160" relative="1" as="geometry">
            <mxPoint x="580" y="494.15" as="sourcePoint" />
            <mxPoint x="590" y="494.15" as="targetPoint" />
          </mxGeometry>
        </mxCell>
        <mxCell id="Kx0jJhwgF_bYMuJnB1j9-4" value="PK_Numero" style="text;align=right;verticalAlign=middle;spacingLeft=0;spacingRight=0;overflow=hidden;rotatable=0;points=[[0,0.5],[1,0.5]];portConstraint=eastwest;rounded=1;shadow=0;html=0;fontSize=6;fontFamily=Verdana;spacing=0;" parent="1" vertex="1">
          <mxGeometry x="161" y="144" width="38" height="10" as="geometry" />
        </mxCell>
        <mxCell id="Kx0jJhwgF_bYMuJnB1j9-5" value="Descricao" style="text;align=right;verticalAlign=middle;spacingLeft=0;spacingRight=0;overflow=hidden;rotatable=0;points=[[0,0.5],[1,0.5]];portConstraint=eastwest;rounded=1;shadow=0;html=0;fontSize=6;fontFamily=Verdana;spacing=0;" parent="1" vertex="1">
          <mxGeometry x="161" y="157" width="38" height="10" as="geometry" />
        </mxCell>
        <mxCell id="Kx0jJhwgF_bYMuJnB1j9-6" value="DataInicio" style="text;align=right;verticalAlign=middle;spacingLeft=0;spacingRight=0;overflow=hidden;rotatable=0;points=[[0,0.5],[1,0.5]];portConstraint=eastwest;rounded=1;fontSize=6;spacing=0;fontFamily=Verdana;" parent="1" vertex="1">
          <mxGeometry x="151" y="174" width="48" height="10" as="geometry" />
        </mxCell>
        <mxCell id="Kx0jJhwgF_bYMuJnB1j9-7" value="DataFim" style="text;align=right;verticalAlign=middle;spacingLeft=0;spacingRight=0;overflow=hidden;rotatable=0;points=[[0,0.5],[1,0.5]];portConstraint=eastwest;rounded=1;fontSize=6;spacing=0;fontFamily=Verdana;" parent="1" vertex="1">
          <mxGeometry x="161" y="187" width="38" height="10" as="geometry" />
        </mxCell>
        <mxCell id="Kx0jJhwgF_bYMuJnB1j9-8" value="Valor" style="text;align=right;verticalAlign=middle;spacingLeft=0;spacingRight=0;overflow=hidden;rotatable=0;points=[[0,0.5],[1,0.5]];portConstraint=eastwest;rounded=1;shadow=0;html=0;fontSize=6;spacing=0;fontFamily=Verdana;" parent="1" vertex="1">
          <mxGeometry x="161" y="202" width="38" height="10" as="geometry" />
        </mxCell>
        <mxCell id="Kx0jJhwgF_bYMuJnB1j9-9" value="FK_Extrato" style="text;align=right;verticalAlign=middle;spacingLeft=0;spacingRight=0;overflow=hidden;rotatable=0;points=[[0,0.5],[1,0.5]];portConstraint=eastwest;rounded=1;shadow=0;html=0;fontSize=6;spacing=0;fontFamily=Verdana;" parent="1" vertex="1">
          <mxGeometry x="161" y="217" width="38" height="10" as="geometry" />
        </mxCell>
        <mxCell id="IcFun9KsBp3rbhrqvedI-1" value="(1)" style="resizable=0;align=left;verticalAlign=bottom;labelBackgroundColor=none;fontSize=6;rounded=1;sketch=1;curveFitting=1;jiggle=2;fontStyle=1" parent="1" connectable="0" vertex="1">
          <mxGeometry x="390" y="330.00000000000006" as="geometry" />
        </mxCell>
        <mxCell id="IcFun9KsBp3rbhrqvedI-2" value="(0,N)" style="resizable=0;align=right;verticalAlign=bottom;labelBackgroundColor=none;fontSize=6;rounded=1;sketch=1;curveFitting=1;jiggle=2;fontStyle=1" parent="1" connectable="0" vertex="1">
          <mxGeometry x="320.9988888888888" y="251.00000000000006" as="geometry" />
        </mxCell>
        <mxCell id="IcFun9KsBp3rbhrqvedI-3" value="" style="endArrow=none;html=1;rounded=0;" parent="1" source="Qjtkibk4rSq-6tBPrJSs-5" target="Z4WY7kCoV3FBbiAQLUHk-62" edge="1">
          <mxGeometry width="50" height="50" relative="1" as="geometry">
            <mxPoint x="381" y="370" as="sourcePoint" />
            <mxPoint x="431" y="320" as="targetPoint" />
          </mxGeometry>
        </mxCell>
        <mxCell id="IcFun9KsBp3rbhrqvedI-4" value="" style="endArrow=none;html=1;rounded=0;exitX=0;exitY=0.25;exitDx=0;exitDy=0;" parent="1" source="Qjtkibk4rSq-6tBPrJSs-4" target="Z4WY7kCoV3FBbiAQLUHk-62" edge="1">
          <mxGeometry width="50" height="50" relative="1" as="geometry">
            <mxPoint x="381" y="330" as="sourcePoint" />
            <mxPoint x="321" y="290" as="targetPoint" />
            <Array as="points">
              <mxPoint x="321" y="330" />
            </Array>
          </mxGeometry>
        </mxCell>
        <mxCell id="IcFun9KsBp3rbhrqvedI-5" value="" style="endArrow=none;html=1;rounded=0;" parent="1" source="Qjtkibk4rSq-6tBPrJSs-4" target="Vt37HeRaP-ZSJKBTCAe3-6" edge="1">
          <mxGeometry width="50" height="50" relative="1" as="geometry">
            <mxPoint x="391" y="340" as="sourcePoint" />
            <mxPoint x="321" y="294" as="targetPoint" />
            <Array as="points" />
          </mxGeometry>
        </mxCell>
        <mxCell id="IcFun9KsBp3rbhrqvedI-6" value="" style="endArrow=none;html=1;rounded=0;" parent="1" source="Vt37HeRaP-ZSJKBTCAe3-6" target="Vt37HeRaP-ZSJKBTCAe3-7" edge="1">
          <mxGeometry width="50" height="50" relative="1" as="geometry">
            <mxPoint x="181" y="302" as="sourcePoint" />
            <mxPoint x="180.60000000000002" y="384" as="targetPoint" />
          </mxGeometry>
        </mxCell>
        <mxCell id="IcFun9KsBp3rbhrqvedI-7" value="" style="endArrow=none;html=1;rounded=0;" parent="1" source="Qjtkibk4rSq-6tBPrJSs-4" target="o78Wbt8Fe9NXopKCtGlK-1" edge="1">
          <mxGeometry width="50" height="50" relative="1" as="geometry">
            <mxPoint x="460.79999999999995" y="359" as="sourcePoint" />
            <mxPoint x="460.79999999999995" y="399" as="targetPoint" />
          </mxGeometry>
        </mxCell>
        <mxCell id="IcFun9KsBp3rbhrqvedI-8" value="" style="endArrow=none;html=1;rounded=0;" parent="1" source="o78Wbt8Fe9NXopKCtGlK-1" target="s_9o1KUbOPqTCdPuqAkv-3" edge="1">
          <mxGeometry width="50" height="50" relative="1" as="geometry">
            <mxPoint x="460.79999999999995" y="440" as="sourcePoint" />
            <mxPoint x="460.79999999999995" y="480" as="targetPoint" />
          </mxGeometry>
        </mxCell>
        <mxCell id="IcFun9KsBp3rbhrqvedI-9" value="" style="endArrow=none;html=1;rounded=0;" parent="1" source="s_9o1KUbOPqTCdPuqAkv-1" target="s_9o1KUbOPqTCdPuqAkv-3" edge="1">
          <mxGeometry width="50" height="50" relative="1" as="geometry">
            <mxPoint x="381" y="419.32" as="sourcePoint" />
            <mxPoint x="381" y="459.31999999999994" as="targetPoint" />
          </mxGeometry>
        </mxCell>
        <mxCell id="IcFun9KsBp3rbhrqvedI-10" value="" style="endArrow=none;html=1;rounded=0;" parent="1" source="s_9o1KUbOPqTCdPuqAkv-1" target="t7u9MMgzfcloO9yACcXT-14" edge="1">
          <mxGeometry width="50" height="50" relative="1" as="geometry">
            <mxPoint x="321" y="539.8" as="sourcePoint" />
            <mxPoint x="281" y="539.8300000000002" as="targetPoint" />
            <Array as="points" />
          </mxGeometry>
        </mxCell>
        <mxCell id="IcFun9KsBp3rbhrqvedI-12" value="Tipo" style="text;align=left;verticalAlign=middle;spacingLeft=0;spacingRight=0;overflow=hidden;rotatable=0;points=[[0,0.5],[1,0.5]];portConstraint=eastwest;rounded=1;shadow=0;html=0;fontSize=6;fontFamily=Verdana;spacing=0;" parent="1" vertex="1">
          <mxGeometry x="282" y="490" width="38" height="9.32" as="geometry" />
        </mxCell>
        <mxCell id="IcFun9KsBp3rbhrqvedI-13" value="DataInicio" style="text;align=left;verticalAlign=middle;spacingLeft=0;spacingRight=0;overflow=hidden;rotatable=0;points=[[0,0.5],[1,0.5]];portConstraint=eastwest;rounded=1;fontSize=6;spacing=0;fontFamily=Verdana;" parent="1" vertex="1">
          <mxGeometry x="282" y="504.32" width="38" height="10" as="geometry" />
        </mxCell>
        <mxCell id="IcFun9KsBp3rbhrqvedI-14" value="DataFim" style="text;align=left;verticalAlign=middle;spacingLeft=0;spacingRight=0;overflow=hidden;rotatable=0;points=[[0,0.5],[1,0.5]];portConstraint=eastwest;rounded=1;fontSize=6;spacing=0;fontFamily=Verdana;" parent="1" vertex="1">
          <mxGeometry x="282" y="520" width="38" height="9.32" as="geometry" />
        </mxCell>
        <mxCell id="IcFun9KsBp3rbhrqvedI-15" value="Fk_Pessoa" style="text;align=left;verticalAlign=middle;spacingLeft=0;spacingRight=0;overflow=hidden;rotatable=0;points=[[0,0.5],[1,0.5]];portConstraint=eastwest;rounded=1;shadow=0;html=0;fontSize=6;spacing=0;fontFamily=Verdana;" parent="1" vertex="1">
          <mxGeometry x="282" y="534.3199999999999" width="38" height="10" as="geometry" />
        </mxCell>
        <mxCell id="IcFun9KsBp3rbhrqvedI-16" value="FK_Portaria" style="text;align=left;verticalAlign=middle;spacingLeft=0;spacingRight=0;overflow=hidden;rotatable=0;points=[[0,0.5],[1,0.5]];portConstraint=eastwest;rounded=1;shadow=0;html=0;fontSize=6;spacing=0;fontFamily=Verdana;" parent="1" vertex="1">
          <mxGeometry x="282" y="550" width="38" height="9.32" as="geometry" />
        </mxCell>
        <mxCell id="IcFun9KsBp3rbhrqvedI-18" value="" style="ellipse;" parent="1" vertex="1">
          <mxGeometry x="270" y="489.31999999999994" width="10" height="10" as="geometry" />
        </mxCell>
        <mxCell id="IcFun9KsBp3rbhrqvedI-19" value="" style="ellipse;" parent="1" vertex="1">
          <mxGeometry x="270" y="504.31999999999994" width="10" height="10" as="geometry" />
        </mxCell>
        <mxCell id="IcFun9KsBp3rbhrqvedI-20" value="" style="ellipse;" parent="1" vertex="1">
          <mxGeometry x="270" y="519.3199999999999" width="10" height="10" as="geometry" />
        </mxCell>
        <mxCell id="IcFun9KsBp3rbhrqvedI-23" value="" style="endArrow=none;startArrow=none;endFill=0;startFill=0;endSize=8;html=1;verticalAlign=bottom;labelBackgroundColor=none;strokeWidth=1;rounded=0;" parent="1" edge="1">
          <mxGeometry width="160" relative="1" as="geometry">
            <mxPoint x="260" y="509.31999999999994" as="sourcePoint" />
            <mxPoint x="270" y="509.31999999999994" as="targetPoint" />
          </mxGeometry>
        </mxCell>
        <mxCell id="IcFun9KsBp3rbhrqvedI-25" value="" style="endArrow=none;startArrow=none;endFill=0;startFill=0;endSize=8;html=1;verticalAlign=bottom;labelBackgroundColor=none;strokeWidth=1;rounded=0;" parent="1" edge="1">
          <mxGeometry width="160" relative="1" as="geometry">
            <mxPoint x="260" y="524.1800000000001" as="sourcePoint" />
            <mxPoint x="270" y="524.1800000000001" as="targetPoint" />
          </mxGeometry>
        </mxCell>
        <mxCell id="IcFun9KsBp3rbhrqvedI-26" value="" style="endArrow=none;startArrow=none;endFill=0;startFill=0;endSize=8;html=1;verticalAlign=bottom;labelBackgroundColor=none;strokeWidth=1;rounded=0;" parent="1" edge="1">
          <mxGeometry width="160" relative="1" as="geometry">
            <mxPoint x="260" y="539.1800000000001" as="sourcePoint" />
            <mxPoint x="270" y="539.1800000000001" as="targetPoint" />
          </mxGeometry>
        </mxCell>
        <mxCell id="IcFun9KsBp3rbhrqvedI-28" value="" style="endArrow=none;startArrow=none;endFill=0;startFill=0;endSize=8;html=1;verticalAlign=bottom;labelBackgroundColor=none;strokeWidth=1;rounded=0;" parent="1" edge="1">
          <mxGeometry width="160" relative="1" as="geometry">
            <mxPoint x="260" y="494.22" as="sourcePoint" />
            <mxPoint x="270" y="494.22" as="targetPoint" />
          </mxGeometry>
        </mxCell>
        <mxCell id="X59MQbwyzAo3dUWknHIh-2" value="" style="ellipse;fillColor=strokeColor;html=1;" parent="1" vertex="1">
          <mxGeometry x="270" y="549.3199999999999" width="10" height="10" as="geometry" />
        </mxCell>
        <mxCell id="X59MQbwyzAo3dUWknHIh-3" value="" style="ellipse;fillColor=strokeColor;html=1;" parent="1" vertex="1">
          <mxGeometry x="270" y="534.3199999999999" width="10" height="10" as="geometry" />
        </mxCell>
        <mxCell id="bSWKWTpZ1g5_E2IvmL6Q-1" value="PK_Numero" style="text;align=left;verticalAlign=middle;spacingLeft=0;spacingRight=0;overflow=hidden;rotatable=0;points=[[0,0.5],[1,0.5]];portConstraint=eastwest;rounded=1;fontSize=6;spacing=0;fontFamily=Verdana;" parent="1" vertex="1">
          <mxGeometry x="442" y="490.32000000000005" width="48" height="9" as="geometry" />
        </mxCell>
        <mxCell id="bSWKWTpZ1g5_E2IvmL6Q-2" value="ProtocoloDiof" style="text;align=left;verticalAlign=middle;spacingLeft=0;spacingRight=0;overflow=hidden;rotatable=0;points=[[0,0.5],[1,0.5]];portConstraint=eastwest;rounded=1;shadow=0;html=0;fontSize=6;spacing=0;fontFamily=Verdana;" parent="1" vertex="1">
          <mxGeometry x="442" y="504.31999999999994" width="58" height="10" as="geometry" />
        </mxCell>
        <mxCell id="bSWKWTpZ1g5_E2IvmL6Q-3" value="UnidadeGestora" style="text;align=left;verticalAlign=middle;spacingLeft=0;spacingRight=0;overflow=hidden;rotatable=0;points=[[0,0.5],[1,0.5]];portConstraint=eastwest;rounded=1;shadow=0;html=0;fontSize=6;spacing=0;fontFamily=Verdana;" parent="1" vertex="1">
          <mxGeometry x="442" y="520.3199999999999" width="48" height="9" as="geometry" />
        </mxCell>
        <mxCell id="bSWKWTpZ1g5_E2IvmL6Q-4" value="" style="endArrow=none;startArrow=none;endFill=0;startFill=0;endSize=8;html=1;verticalAlign=bottom;labelBackgroundColor=none;strokeWidth=1;rounded=0;entryX=0;entryY=0.5;entryDx=0;entryDy=0;" parent="1" edge="1">
          <mxGeometry width="160" relative="1" as="geometry">
            <mxPoint x="420" y="480" as="sourcePoint" />
            <mxPoint x="430.00000000000216" y="555.57" as="targetPoint" />
            <Array as="points">
              <mxPoint x="420" y="555.57" />
            </Array>
          </mxGeometry>
        </mxCell>
        <mxCell id="bSWKWTpZ1g5_E2IvmL6Q-7" value="" style="endArrow=none;startArrow=none;endFill=0;startFill=0;endSize=8;html=1;verticalAlign=bottom;labelBackgroundColor=none;strokeWidth=1;rounded=0;" parent="1" edge="1">
          <mxGeometry width="160" relative="1" as="geometry">
            <mxPoint x="420" y="539.15" as="sourcePoint" />
            <mxPoint x="430" y="539.15" as="targetPoint" />
          </mxGeometry>
        </mxCell>
        <mxCell id="bSWKWTpZ1g5_E2IvmL6Q-8" value="" style="endArrow=none;startArrow=none;endFill=0;startFill=0;endSize=8;html=1;verticalAlign=bottom;labelBackgroundColor=none;strokeWidth=1;rounded=0;" parent="1" edge="1">
          <mxGeometry width="160" relative="1" as="geometry">
            <mxPoint x="420" y="524.15" as="sourcePoint" />
            <mxPoint x="430" y="524.15" as="targetPoint" />
          </mxGeometry>
        </mxCell>
        <mxCell id="bSWKWTpZ1g5_E2IvmL6Q-10" value="DataPublicacao" style="text;align=left;verticalAlign=middle;spacingLeft=0;spacingRight=0;overflow=hidden;rotatable=0;points=[[0,0.5],[1,0.5]];portConstraint=eastwest;rounded=1;shadow=0;html=0;fontSize=6;spacing=0;fontFamily=Verdana;" parent="1" vertex="1">
          <mxGeometry x="442" y="534.3199999999999" width="48" height="9" as="geometry" />
        </mxCell>
        <mxCell id="bSWKWTpZ1g5_E2IvmL6Q-11" value="" style="ellipse;fillColor=strokeColor;html=1;" parent="1" vertex="1">
          <mxGeometry x="430" y="489.32000000000005" width="10" height="10" as="geometry" />
        </mxCell>
        <mxCell id="bSWKWTpZ1g5_E2IvmL6Q-12" value="" style="ellipse;" parent="1" vertex="1">
          <mxGeometry x="430" y="504.32000000000005" width="10" height="10" as="geometry" />
        </mxCell>
        <mxCell id="bSWKWTpZ1g5_E2IvmL6Q-13" value="" style="ellipse;" parent="1" vertex="1">
          <mxGeometry x="430" y="519.32" width="10" height="10" as="geometry" />
        </mxCell>
        <mxCell id="bSWKWTpZ1g5_E2IvmL6Q-14" value="" style="ellipse;" parent="1" vertex="1">
          <mxGeometry x="430" y="534.32" width="10" height="10" as="geometry" />
        </mxCell>
        <mxCell id="bSWKWTpZ1g5_E2IvmL6Q-15" value="" style="ellipse;" parent="1" vertex="1">
          <mxGeometry x="430" y="549.32" width="10" height="10" as="geometry" />
        </mxCell>
        <mxCell id="bSWKWTpZ1g5_E2IvmL6Q-18" value="" style="endArrow=none;startArrow=none;endFill=0;startFill=0;endSize=8;html=1;verticalAlign=bottom;labelBackgroundColor=none;strokeWidth=1;rounded=0;" parent="1" edge="1">
          <mxGeometry width="160" relative="1" as="geometry">
            <mxPoint x="420" y="509.15" as="sourcePoint" />
            <mxPoint x="430" y="509.15" as="targetPoint" />
          </mxGeometry>
        </mxCell>
        <mxCell id="bSWKWTpZ1g5_E2IvmL6Q-19" value="" style="endArrow=none;startArrow=none;endFill=0;startFill=0;endSize=8;html=1;verticalAlign=bottom;labelBackgroundColor=none;strokeWidth=1;rounded=0;" parent="1" edge="1">
          <mxGeometry width="160" relative="1" as="geometry">
            <mxPoint x="420" y="494.15" as="sourcePoint" />
            <mxPoint x="430" y="494.15" as="targetPoint" />
          </mxGeometry>
        </mxCell>
        <mxCell id="DaRjVB2v4rpS3GP-TPNr-10" value="FK_Extrato" style="text;align=left;verticalAlign=middle;spacingLeft=0;spacingRight=0;overflow=hidden;rotatable=0;points=[[0,0.5],[1,0.5]];portConstraint=eastwest;rounded=1;shadow=0;html=0;fontSize=6;spacing=0;fontFamily=Verdana;" parent="1" vertex="1">
          <mxGeometry x="443" y="550.32" width="38" height="9" as="geometry" />
        </mxCell>
        <mxCell id="_-87hLhmMindsgTi3noe-1" value="PK_Matricula" style="text;align=left;verticalAlign=middle;spacingLeft=0;spacingRight=0;overflow=hidden;rotatable=0;points=[[0,0.5],[1,0.5]];portConstraint=eastwest;rounded=1;fontSize=6;spacing=0;fontFamily=Verdana;" parent="1" vertex="1">
          <mxGeometry x="122" y="487.32000000000016" width="48" height="10" as="geometry" />
        </mxCell>
        <mxCell id="_-87hLhmMindsgTi3noe-2" value="Nome" style="text;align=left;verticalAlign=middle;spacingLeft=0;spacingRight=0;overflow=hidden;rotatable=0;points=[[0,0.5],[1,0.5]];portConstraint=eastwest;rounded=1;shadow=0;html=0;fontSize=6;spacing=0;fontFamily=Verdana;" parent="1" vertex="1">
          <mxGeometry x="122" y="502.31999999999994" width="58" height="10" as="geometry" />
        </mxCell>
        <mxCell id="_-87hLhmMindsgTi3noe-3" value="CPF" style="text;align=left;verticalAlign=middle;spacingLeft=0;spacingRight=0;overflow=hidden;rotatable=0;points=[[0,0.5],[1,0.5]];portConstraint=eastwest;rounded=1;shadow=0;html=0;fontSize=6;spacing=0;fontFamily=Verdana;" parent="1" vertex="1">
          <mxGeometry x="122" y="517.3199999999999" width="48" height="10" as="geometry" />
        </mxCell>
        <mxCell id="_-87hLhmMindsgTi3noe-4" value="" style="endArrow=none;startArrow=none;endFill=0;startFill=0;endSize=8;html=1;verticalAlign=bottom;labelBackgroundColor=none;strokeWidth=1;rounded=0;entryX=0;entryY=0.5;entryDx=0;entryDy=0;" parent="1" edge="1">
          <mxGeometry width="160" relative="1" as="geometry">
            <mxPoint x="100" y="480" as="sourcePoint" />
            <mxPoint x="110.00000000000216" y="553.5700000000002" as="targetPoint" />
            <Array as="points">
              <mxPoint x="100" y="553.5700000000002" />
            </Array>
          </mxGeometry>
        </mxCell>
        <mxCell id="_-87hLhmMindsgTi3noe-5" value="" style="endArrow=none;startArrow=none;endFill=0;startFill=0;endSize=8;html=1;verticalAlign=bottom;labelBackgroundColor=none;strokeWidth=1;rounded=0;" parent="1" edge="1">
          <mxGeometry width="160" relative="1" as="geometry">
            <mxPoint x="100" y="537.1500000000001" as="sourcePoint" />
            <mxPoint x="110" y="537.1500000000001" as="targetPoint" />
          </mxGeometry>
        </mxCell>
        <mxCell id="_-87hLhmMindsgTi3noe-6" value="" style="endArrow=none;startArrow=none;endFill=0;startFill=0;endSize=8;html=1;verticalAlign=bottom;labelBackgroundColor=none;strokeWidth=1;rounded=0;" parent="1" edge="1">
          <mxGeometry width="160" relative="1" as="geometry">
            <mxPoint x="100" y="522.1500000000001" as="sourcePoint" />
            <mxPoint x="110" y="522.1500000000001" as="targetPoint" />
          </mxGeometry>
        </mxCell>
        <mxCell id="_-87hLhmMindsgTi3noe-7" value="UG" style="text;align=left;verticalAlign=middle;spacingLeft=0;spacingRight=0;overflow=hidden;rotatable=0;points=[[0,0.5],[1,0.5]];portConstraint=eastwest;rounded=1;shadow=0;html=0;fontSize=6;spacing=0;fontFamily=Verdana;" parent="1" vertex="1">
          <mxGeometry x="122" y="532.3199999999999" width="48" height="10" as="geometry" />
        </mxCell>
        <mxCell id="_-87hLhmMindsgTi3noe-8" value="" style="ellipse;fillColor=strokeColor;html=1;" parent="1" vertex="1">
          <mxGeometry x="110" y="487.32000000000016" width="10" height="10" as="geometry" />
        </mxCell>
        <mxCell id="_-87hLhmMindsgTi3noe-9" value="" style="ellipse;" parent="1" vertex="1">
          <mxGeometry x="110" y="502.32000000000016" width="10" height="10" as="geometry" />
        </mxCell>
        <mxCell id="_-87hLhmMindsgTi3noe-10" value="" style="ellipse;" parent="1" vertex="1">
          <mxGeometry x="110" y="517.3200000000002" width="10" height="10" as="geometry" />
        </mxCell>
        <mxCell id="_-87hLhmMindsgTi3noe-11" value="" style="ellipse;" parent="1" vertex="1">
          <mxGeometry x="110" y="532.3200000000002" width="10" height="10" as="geometry" />
        </mxCell>
        <mxCell id="_-87hLhmMindsgTi3noe-12" value="" style="ellipse;" parent="1" vertex="1">
          <mxGeometry x="110" y="547.3200000000002" width="10" height="10" as="geometry" />
        </mxCell>
        <mxCell id="_-87hLhmMindsgTi3noe-13" value="" style="endArrow=none;startArrow=none;endFill=0;startFill=0;endSize=8;html=1;verticalAlign=bottom;labelBackgroundColor=none;strokeWidth=1;rounded=0;" parent="1" edge="1">
          <mxGeometry width="160" relative="1" as="geometry">
            <mxPoint x="100" y="507.1500000000001" as="sourcePoint" />
            <mxPoint x="110" y="507.1500000000001" as="targetPoint" />
          </mxGeometry>
        </mxCell>
        <mxCell id="_-87hLhmMindsgTi3noe-14" value="" style="endArrow=none;startArrow=none;endFill=0;startFill=0;endSize=8;html=1;verticalAlign=bottom;labelBackgroundColor=none;strokeWidth=1;rounded=0;" parent="1" edge="1">
          <mxGeometry width="160" relative="1" as="geometry">
            <mxPoint x="100" y="492.1500000000001" as="sourcePoint" />
            <mxPoint x="110" y="492.1500000000001" as="targetPoint" />
          </mxGeometry>
        </mxCell>
        <mxCell id="_-87hLhmMindsgTi3noe-15" value="Setor" style="text;align=left;verticalAlign=middle;spacingLeft=0;spacingRight=0;overflow=hidden;rotatable=0;points=[[0,0.5],[1,0.5]];portConstraint=eastwest;rounded=1;shadow=0;html=0;fontSize=6;spacing=0;fontFamily=Verdana;" parent="1" vertex="1">
          <mxGeometry x="122" y="547.3200000000002" width="38" height="10" as="geometry" />
        </mxCell>
        <mxCell id="wvo8dyzJjVs_bBfrfOCB-13" value="" style="ellipse;fillColor=strokeColor;html=1;" parent="1" vertex="1">
          <mxGeometry x="201" y="144" width="10" height="10" as="geometry" />
        </mxCell>
        <mxCell id="wvo8dyzJjVs_bBfrfOCB-14" value="" style="ellipse;" parent="1" vertex="1">
          <mxGeometry x="201" y="159" width="10" height="10" as="geometry" />
        </mxCell>
        <mxCell id="wvo8dyzJjVs_bBfrfOCB-15" value="" style="ellipse;" parent="1" vertex="1">
          <mxGeometry x="201" y="174" width="10" height="10" as="geometry" />
        </mxCell>
        <mxCell id="wvo8dyzJjVs_bBfrfOCB-16" value="" style="ellipse;" parent="1" vertex="1">
          <mxGeometry x="201" y="189" width="10" height="10" as="geometry" />
        </mxCell>
        <mxCell id="wvo8dyzJjVs_bBfrfOCB-17" value="" style="ellipse;" parent="1" vertex="1">
          <mxGeometry x="201" y="204" width="10" height="10" as="geometry" />
        </mxCell>
        <mxCell id="wvo8dyzJjVs_bBfrfOCB-18" value="" style="ellipse;" parent="1" vertex="1">
          <mxGeometry x="201" y="219" width="10" height="10" as="geometry" />
        </mxCell>
        <mxCell id="wvo8dyzJjVs_bBfrfOCB-19" value="" style="endArrow=none;startArrow=none;endFill=0;startFill=0;endSize=8;html=1;verticalAlign=bottom;labelBackgroundColor=none;strokeWidth=1;rounded=0;" parent="1" edge="1">
          <mxGeometry width="160" relative="1" as="geometry">
            <mxPoint x="211" y="179" as="sourcePoint" />
            <mxPoint x="221" y="179" as="targetPoint" />
          </mxGeometry>
        </mxCell>
        <mxCell id="wvo8dyzJjVs_bBfrfOCB-20" value="" style="endArrow=none;startArrow=none;endFill=0;startFill=0;endSize=8;html=1;verticalAlign=bottom;labelBackgroundColor=none;strokeWidth=1;rounded=0;exitX=0.417;exitY=0;exitDx=0;exitDy=0;exitPerimeter=0;" parent="1" edge="1">
          <mxGeometry width="160" relative="1" as="geometry">
            <mxPoint x="221" y="240" as="sourcePoint" />
            <mxPoint x="211" y="149" as="targetPoint" />
            <Array as="points">
              <mxPoint x="221" y="149" />
            </Array>
          </mxGeometry>
        </mxCell>
        <mxCell id="wvo8dyzJjVs_bBfrfOCB-21" value="" style="endArrow=none;startArrow=none;endFill=0;startFill=0;endSize=8;html=1;verticalAlign=bottom;labelBackgroundColor=none;strokeWidth=1;rounded=0;" parent="1" edge="1">
          <mxGeometry width="160" relative="1" as="geometry">
            <mxPoint x="211" y="193.86" as="sourcePoint" />
            <mxPoint x="221" y="193.86" as="targetPoint" />
          </mxGeometry>
        </mxCell>
        <mxCell id="wvo8dyzJjVs_bBfrfOCB-22" value="" style="endArrow=none;startArrow=none;endFill=0;startFill=0;endSize=8;html=1;verticalAlign=bottom;labelBackgroundColor=none;strokeWidth=1;rounded=0;" parent="1" edge="1">
          <mxGeometry width="160" relative="1" as="geometry">
            <mxPoint x="211" y="208.86" as="sourcePoint" />
            <mxPoint x="221" y="208.86" as="targetPoint" />
          </mxGeometry>
        </mxCell>
        <mxCell id="wvo8dyzJjVs_bBfrfOCB-23" value="" style="endArrow=none;startArrow=none;endFill=0;startFill=0;endSize=8;html=1;verticalAlign=bottom;labelBackgroundColor=none;strokeWidth=1;rounded=0;" parent="1" edge="1">
          <mxGeometry width="160" relative="1" as="geometry">
            <mxPoint x="211" y="223.86" as="sourcePoint" />
            <mxPoint x="221" y="223.86" as="targetPoint" />
          </mxGeometry>
        </mxCell>
        <mxCell id="wvo8dyzJjVs_bBfrfOCB-24" value="" style="endArrow=none;startArrow=none;endFill=0;startFill=0;endSize=8;html=1;verticalAlign=bottom;labelBackgroundColor=none;strokeWidth=1;rounded=0;" parent="1" edge="1">
          <mxGeometry width="160" relative="1" as="geometry">
            <mxPoint x="211" y="163.9" as="sourcePoint" />
            <mxPoint x="221" y="163.9" as="targetPoint" />
          </mxGeometry>
        </mxCell>
        <mxCell id="wvo8dyzJjVs_bBfrfOCB-27" value="" style="endArrow=none;startArrow=none;endFill=0;startFill=0;endSize=8;html=1;verticalAlign=bottom;labelBackgroundColor=none;strokeWidth=1;rounded=0;" parent="1" edge="1">
          <mxGeometry width="160" relative="1" as="geometry">
            <mxPoint x="489.94000000000005" y="247.86" as="sourcePoint" />
            <mxPoint x="499.94000000000005" y="247.86" as="targetPoint" />
          </mxGeometry>
        </mxCell>
        <mxCell id="wvo8dyzJjVs_bBfrfOCB-28" value="" style="endArrow=none;startArrow=none;endFill=0;startFill=0;endSize=8;html=1;verticalAlign=bottom;labelBackgroundColor=none;strokeWidth=1;rounded=0;" parent="1" edge="1">
          <mxGeometry width="160" relative="1" as="geometry">
            <mxPoint x="489.96000000000004" y="262.86" as="sourcePoint" />
            <mxPoint x="499.96000000000004" y="262.86" as="targetPoint" />
          </mxGeometry>
        </mxCell>
        <mxCell id="wvo8dyzJjVs_bBfrfOCB-29" value="" style="endArrow=none;startArrow=none;endFill=0;startFill=0;endSize=8;html=1;verticalAlign=bottom;labelBackgroundColor=none;strokeWidth=1;rounded=0;" parent="1" edge="1">
          <mxGeometry width="160" relative="1" as="geometry">
            <mxPoint x="489.96000000000004" y="278.86" as="sourcePoint" />
            <mxPoint x="499.96000000000004" y="278.86" as="targetPoint" />
          </mxGeometry>
        </mxCell>
        <mxCell id="wvo8dyzJjVs_bBfrfOCB-30" value="" style="endArrow=none;startArrow=none;endFill=0;startFill=0;endSize=8;html=1;verticalAlign=bottom;labelBackgroundColor=none;strokeWidth=1;rounded=0;" parent="1" edge="1">
          <mxGeometry width="160" relative="1" as="geometry">
            <mxPoint x="489.96000000000004" y="293.86" as="sourcePoint" />
            <mxPoint x="499.96000000000004" y="293.86" as="targetPoint" />
          </mxGeometry>
        </mxCell>
        <mxCell id="wvo8dyzJjVs_bBfrfOCB-31" value="" style="endArrow=none;startArrow=none;endFill=0;startFill=0;endSize=8;html=1;verticalAlign=bottom;labelBackgroundColor=none;strokeWidth=1;rounded=0;" parent="1" edge="1">
          <mxGeometry width="160" relative="1" as="geometry">
            <mxPoint x="489.96000000000004" y="308.86" as="sourcePoint" />
            <mxPoint x="499.96000000000004" y="308.86" as="targetPoint" />
          </mxGeometry>
        </mxCell>
        <mxCell id="wvo8dyzJjVs_bBfrfOCB-33" value="Modelo Conceitual - Gestor de contratos" style="text;html=1;strokeColor=none;fillColor=none;align=center;verticalAlign=middle;whiteSpace=wrap;rounded=0;fontSize=20;fontFamily=Architects Daughter;fontSource=https%3A%2F%2Ffonts.googleapis.com%2Fcss%3Ffamily%3DArchitects%2BDaughter;" parent="1" vertex="1">
          <mxGeometry x="40" y="45" width="390" height="30" as="geometry" />
        </mxCell>
        <mxCell id="7-2v4JQkOdK6kB7DVNhf-1" value="(0,N)" style="resizable=0;align=right;verticalAlign=bottom;labelBackgroundColor=none;fontSize=6;rounded=1;sketch=1;curveFitting=1;jiggle=2;fontStyle=1" parent="1" connectable="0" vertex="1">
          <mxGeometry x="180.9988888888888" y="292.00000000000006" as="geometry" />
        </mxCell>
        <mxCell id="7-2v4JQkOdK6kB7DVNhf-2" value="(1)" style="resizable=0;align=left;verticalAlign=bottom;labelBackgroundColor=none;fontSize=6;rounded=1;sketch=1;curveFitting=1;jiggle=2;fontStyle=1" parent="1" connectable="0" vertex="1">
          <mxGeometry x="395" y="335.00000000000006" as="geometry">
            <mxPoint x="-5" y="16" as="offset" />
          </mxGeometry>
        </mxCell>
        <mxCell id="IlRinJSM7mX_ckyTF_zk-1" value="(1)" style="resizable=0;align=left;verticalAlign=bottom;labelBackgroundColor=none;fontSize=6;rounded=1;sketch=1;curveFitting=1;jiggle=2;fontStyle=1" parent="1" connectable="0" vertex="1">
          <mxGeometry x="521" y="331.00000000000006" as="geometry" />
        </mxCell>
        <mxCell id="IlRinJSM7mX_ckyTF_zk-2" value="(1)" style="resizable=0;align=right;verticalAlign=bottom;labelBackgroundColor=none;fontSize=6;rounded=1;sketch=1;curveFitting=1;jiggle=2;fontStyle=1" parent="1" connectable="0" vertex="1">
          <mxGeometry x="620.9988888888888" y="250.50000000000006" as="geometry" />
        </mxCell>
        <mxCell id="IlRinJSM7mX_ckyTF_zk-3" value="(1,N)" style="resizable=0;align=left;verticalAlign=bottom;labelBackgroundColor=none;fontSize=6;rounded=1;sketch=1;curveFitting=1;jiggle=2;fontStyle=1" parent="1" connectable="0" vertex="1">
          <mxGeometry x="744" y="342.00000000000006" as="geometry" />
        </mxCell>
        <mxCell id="IlRinJSM7mX_ckyTF_zk-4" value="(1,1)" style="resizable=0;align=right;verticalAlign=bottom;labelBackgroundColor=none;fontSize=6;rounded=1;sketch=1;curveFitting=1;jiggle=2;fontStyle=1" parent="1" connectable="0" vertex="1">
          <mxGeometry x="537" y="342.00000000000006" as="geometry" />
        </mxCell>
        <mxCell id="IlRinJSM7mX_ckyTF_zk-5" value="" style="endArrow=none;html=1;rounded=0;" parent="1" source="S2Lt47LwQYbyGK_pYFCS-4" target="JigoL2MUty575V7aY3mR-3" edge="1">
          <mxGeometry width="50" height="50" relative="1" as="geometry">
            <mxPoint x="620.8" y="218.5" as="sourcePoint" />
            <mxPoint x="621" y="255.5" as="targetPoint" />
          </mxGeometry>
        </mxCell>
        <mxCell id="IlRinJSM7mX_ckyTF_zk-6" value="" style="endArrow=none;html=1;rounded=0;" parent="1" source="8CYBEvSogMXuopL1VPrF-2" target="S2Lt47LwQYbyGK_pYFCS-7" edge="1">
          <mxGeometry width="50" height="50" relative="1" as="geometry">
            <mxPoint x="821" y="279.5" as="sourcePoint" />
            <mxPoint x="821" y="318.5" as="targetPoint" />
          </mxGeometry>
        </mxCell>
        <mxCell id="IlRinJSM7mX_ckyTF_zk-7" value="" style="endArrow=none;html=1;rounded=0;" parent="1" source="JigoL2MUty575V7aY3mR-18" target="S2Lt47LwQYbyGK_pYFCS-7" edge="1">
          <mxGeometry width="50" height="50" relative="1" as="geometry">
            <mxPoint x="721" y="339.76" as="sourcePoint" />
            <mxPoint x="761" y="339.76" as="targetPoint" />
          </mxGeometry>
        </mxCell>
        <mxCell id="IlRinJSM7mX_ckyTF_zk-8" value="" style="endArrow=none;html=1;rounded=0;" parent="1" source="Qjtkibk4rSq-6tBPrJSs-4" target="JigoL2MUty575V7aY3mR-18" edge="1">
          <mxGeometry width="50" height="50" relative="1" as="geometry">
            <mxPoint x="521" y="341.52" as="sourcePoint" />
            <mxPoint x="561" y="341.52" as="targetPoint" />
          </mxGeometry>
        </mxCell>
        <mxCell id="IlRinJSM7mX_ckyTF_zk-9" value="" style="endArrow=none;html=1;rounded=0;" parent="1" source="S2Lt47LwQYbyGK_pYFCS-9" target="8CYBEvSogMXuopL1VPrF-2" edge="1">
          <mxGeometry width="50" height="50" relative="1" as="geometry">
            <mxPoint x="821" y="221.5" as="sourcePoint" />
            <mxPoint x="821" y="260.5" as="targetPoint" />
          </mxGeometry>
        </mxCell>
        <mxCell id="IlRinJSM7mX_ckyTF_zk-10" value="" style="endArrow=none;html=1;rounded=0;" parent="1" source="S2Lt47LwQYbyGK_pYFCS-1" target="S2Lt47LwQYbyGK_pYFCS-8" edge="1">
          <mxGeometry width="50" height="50" relative="1" as="geometry">
            <mxPoint x="660" y="458.76" as="sourcePoint" />
            <mxPoint x="700" y="458.76" as="targetPoint" />
          </mxGeometry>
        </mxCell>
        <mxCell id="IlRinJSM7mX_ckyTF_zk-11" value="" style="endArrow=none;html=1;rounded=0;" parent="1" target="S2Lt47LwQYbyGK_pYFCS-1" edge="1">
          <mxGeometry width="50" height="50" relative="1" as="geometry">
            <mxPoint x="521" y="350" as="sourcePoint" />
            <mxPoint x="561" y="350" as="targetPoint" />
            <Array as="points">
              <mxPoint x="621" y="350" />
            </Array>
          </mxGeometry>
        </mxCell>
        <mxCell id="DfRWs_dkNfwCAUBG4vMa-1" value="(1)" style="resizable=0;align=left;verticalAlign=bottom;labelBackgroundColor=none;fontSize=6;rounded=1;sketch=1;curveFitting=1;jiggle=2;fontStyle=1" parent="1" connectable="0" vertex="1">
          <mxGeometry x="521" y="352.00000000000006" as="geometry" />
        </mxCell>
        <mxCell id="DfRWs_dkNfwCAUBG4vMa-2" value="(1)" style="resizable=0;align=left;verticalAlign=bottom;labelBackgroundColor=none;fontSize=6;rounded=1;sketch=1;curveFitting=1;jiggle=2;fontStyle=1" parent="1" connectable="0" vertex="1">
          <mxGeometry x="609.5" y="440" as="geometry" />
        </mxCell>
        <mxCell id="DfRWs_dkNfwCAUBG4vMa-3" value="(1,N)" style="resizable=0;align=left;verticalAlign=bottom;labelBackgroundColor=none;fontSize=6;rounded=1;sketch=1;curveFitting=1;jiggle=2;fontStyle=1" parent="1" connectable="0" vertex="1">
          <mxGeometry x="805" y="321.00000000000006" as="geometry" />
        </mxCell>
        <mxCell id="DfRWs_dkNfwCAUBG4vMa-4" value="(1)" style="resizable=0;align=left;verticalAlign=bottom;labelBackgroundColor=none;fontSize=6;rounded=1;sketch=1;curveFitting=1;jiggle=2;fontStyle=1" parent="1" connectable="0" vertex="1">
          <mxGeometry x="810" y="250.00000000000006" as="geometry" />
        </mxCell>
        <mxCell id="DfRWs_dkNfwCAUBG4vMa-5" value="(1)" style="resizable=0;align=left;verticalAlign=bottom;labelBackgroundColor=none;fontSize=6;rounded=1;sketch=1;curveFitting=1;jiggle=2;fontStyle=1" parent="1" connectable="0" vertex="1">
          <mxGeometry x="451" y="371.32000000000005" as="geometry" />
        </mxCell>
        <mxCell id="DfRWs_dkNfwCAUBG4vMa-6" value="(1,N)" style="resizable=0;align=left;verticalAlign=bottom;labelBackgroundColor=none;fontSize=6;rounded=1;sketch=1;curveFitting=1;jiggle=2;fontStyle=1;direction=south;" parent="1" connectable="0" vertex="1">
          <mxGeometry x="443.96000000000004" y="441" as="geometry" />
        </mxCell>
        <mxCell id="rfkVlGTE99vZIYo8V-Nk-1" value="(1)" style="resizable=0;align=left;verticalAlign=bottom;labelBackgroundColor=none;fontSize=6;rounded=1;sketch=1;curveFitting=1;jiggle=2;fontStyle=1" parent="1" connectable="0" vertex="1">
          <mxGeometry x="390" y="460.5" as="geometry" />
        </mxCell>
        <mxCell id="rfkVlGTE99vZIYo8V-Nk-2" value="(1,N)" style="resizable=0;align=right;verticalAlign=bottom;labelBackgroundColor=none;fontSize=6;rounded=1;sketch=1;curveFitting=1;jiggle=2;fontStyle=1;direction=south;" parent="1" connectable="0" vertex="1">
          <mxGeometry x="377.9988888888888" y="461.5" as="geometry" />
        </mxCell>
        <mxCell id="u4H5hE1vs_pVWVMV7BeC-1" value="(1,N)" style="resizable=0;align=right;verticalAlign=bottom;labelBackgroundColor=none;fontSize=6;rounded=1;sketch=1;curveFitting=1;jiggle=2;fontStyle=1" parent="1" connectable="0" vertex="1">
          <mxGeometry x="217.9988888888888" y="461.5000000000001" as="geometry" />
        </mxCell>
        <mxCell id="u4H5hE1vs_pVWVMV7BeC-2" value="(1)" style="resizable=0;align=left;verticalAlign=bottom;labelBackgroundColor=none;fontSize=6;rounded=1;sketch=1;curveFitting=1;jiggle=2;fontStyle=1" parent="1" connectable="0" vertex="1">
          <mxGeometry x="231" y="461.5" as="geometry" />
        </mxCell>
        <mxCell id="u4H5hE1vs_pVWVMV7BeC-3" value="" style="endArrow=none;html=1;rounded=0;exitX=1;exitY=0.25;exitDx=0;exitDy=0;" parent="1" source="Qjtkibk4rSq-6tBPrJSs-4" target="JigoL2MUty575V7aY3mR-3" edge="1">
          <mxGeometry width="50" height="50" relative="1" as="geometry">
            <mxPoint x="521" y="330" as="sourcePoint" />
            <mxPoint x="601" y="340" as="targetPoint" />
            <Array as="points">
              <mxPoint x="621" y="330" />
            </Array>
          </mxGeometry>
        </mxCell>
        <mxCell id="COevjAoBZNqAolXZW7po-1" value="" style="endArrow=none;startArrow=none;endFill=0;startFill=0;endSize=8;html=1;verticalAlign=bottom;labelBackgroundColor=none;strokeWidth=1;rounded=0;entryX=0;entryY=0.5;entryDx=0;entryDy=0;" parent="1" edge="1">
          <mxGeometry width="160" relative="1" as="geometry">
            <mxPoint x="260" y="480.75" as="sourcePoint" />
            <mxPoint x="270.00000000000216" y="554.32" as="targetPoint" />
            <Array as="points">
              <mxPoint x="260" y="554.32" />
            </Array>
          </mxGeometry>
        </mxCell>
      </root>
    </mxGraphModel>
  </diagram>
</mxfile>
